<?xml version="1.0" encoding="UTF-8"?>
<svg width="62px" height="83px" viewBox="0 0 62 83" version="1.1" xmlns="http://www.w3.org/2000/svg" xmlns:xlink="http://www.w3.org/1999/xlink">
    <title>Group 3</title>
    <g id="💻-Desktop" stroke="none" stroke-width="1" fill="none" fill-rule="evenodd">
        <g id="Desktop/project/pumello" transform="translate(-689.000000, -654.000000)" fill="#FFFFFF">
            <g id="Group-3" transform="translate(689.000000, 654.000000)">
                <path d="M31.1680988,21 C44.3331268,21 61.6680988,41.0723779 61.6680988,53.8913056 C61.6680988,70.7055889 48.0127837,83 31.1680988,83 C14.3234139,83 0.668098818,70.7056176 0.668098818,53.8913056 C0.668098818,41.0723779 18.0030709,21 31.1680988,21 Z M30.6680988,23 C18.1505313,23 1.66809882,41.7773858 1.66809882,53.7692858 C1.66809882,69.4988036 14.6518411,81 30.6680988,81 C46.6843566,81 59.6680988,69.4987767 59.6680988,53.7692858 C59.6680988,41.7773858 43.1856664,23 30.6680988,23 Z" id="Combined-Shape"></path>
                <g id="A09" transform="translate(17.430000, 0.000000)">
                    <path d="M13.2835661,18.6768067 C14.8121139,11.0151522 17.5078824,6.01649598 21.3708713,3.68083789 C25.2338602,1.3451798 31.5721054,0.881649297 40.3856069,2.29024638 C38.2793648,9.38744513 35.3031894,14.0987705 31.4570807,16.4242224 C27.6109719,18.7496743 21.5531337,19.5005357 13.2835661,18.6768067 Z" id="leaf-1"></path>
                    <path d="M13.4047723,13.3074599 C13.555862,9.09811734 12.7509382,6.07869157 10.990001,4.24918258 C9.09180595,2.27707089 5.44001205,1.01983248 0.0346192981,0.477467359 C0.140709764,4.97312761 1.13870522,8.20270478 3.02860567,10.1661989 C4.77173658,11.9772082 7.83452187,13.293889 12.2169616,14.1162413 L12.3501667,14.1410096 C12.83417,14.230186 13.2998007,13.9153462 13.3901821,13.4377952 C13.3983253,13.3947688 13.4032022,13.3512027 13.4047723,13.3074599 Z" id="leaf-2"></path>
                </g>
                <path d="M34.172942,45.6428866 C37.3011423,44.8638158 39.9650477,41.230274 44.2924286,42.1472931 C46.5323238,42.6219513 47.7151526,43.8122131 48.3818249,45.2393118 C47.2098316,47.2048863 39.6712829,50.6984399 31.2535115,49.4943426 C27.5633192,48.966489 25.5261321,47.3513065 24.2370748,45.5993422 C26.4847825,46.7787428 31.5552765,46.2948099 34.172942,45.6428866 Z" id="fruit-inner-[-94--29--74--53]"></path>
                <path d="M7.4887218,52.9073455 C7.4887218,44.4529855 12.2892787,39 16.1776262,39 C19.7121774,39 18.2314715,49.7959357 30.1777658,51.5460955 C42.1240602,53.2962554 52.69787,47.5359071 52.4796361,45.2136587 C52.9079547,46.1554082 53.9366273,49.1303855 53.9366273,52.9073455 C53.9360514,61.3617666 47.7022841,76 30.7126745,76 C13.723065,76 7.4887218,61.3617056 7.4887218,52.9073455 Z" id="fruit"></path>
            </g>
        </g>
    </g>
</svg>