<?xml version="1.0" encoding="UTF-8"?>
<svg width="64px" height="84px" viewBox="0 0 64 84" version="1.1" xmlns="http://www.w3.org/2000/svg" xmlns:xlink="http://www.w3.org/1999/xlink">
    <title>Group 4</title>
    <defs>
        <linearGradient x1="13.347234%" y1="50%" x2="100%" y2="50%" id="linearGradient-1">
            <stop stop-color="#933122" offset="0%"></stop>
            <stop stop-color="#D72D23" offset="100%"></stop>
        </linearGradient>
    </defs>
    <g id="💻-Desktop" stroke="none" stroke-width="1" fill="none" fill-rule="evenodd">
        <g id="Desktop/project/pumello" transform="translate(-688.000000, -519.000000)">
            <g id="Group-4" transform="translate(688.000000, 519.000000)">
                <path d="M32.3187856,84 C49.7157552,84 63.8187856,71.507292 63.8187856,54.4218105 C63.8187856,41.3961259 45.9154538,21 32.3187856,21 C18.7221174,21 0.818785579,41.3961259 0.818785579,54.4218105 C0.818785579,71.5073211 14.921816,84 32.3187856,84 Z" id="Oval" fill="#E6FF00"></path>
                <path d="M32.8187856,82 C48.8350433,82 61.8187856,70.3004798 61.8187856,54.2997908 C61.8187856,42.1011338 45.3363531,23 32.8187856,23 C20.301218,23 3.81878558,42.1011338 3.81878558,54.2997908 C3.81878558,70.3005071 16.8025278,82 32.8187856,82 Z" id="Oval" fill="#FEFCE7"></path>
                <path d="M35.5455728,46.272618 C39.6733746,45.1450114 43.1885184,39.8859189 48.8986934,41.2131882 C52.5767073,42.0681033 54.0947433,44.5269133 54.828215,47.2542879 C54.6279345,46.5636939 54.4375521,46.042383 54.3042422,45.7282342 C54.5266211,48.2644409 43.7519765,54.5555139 31.578779,52.6441046 C24.9389121,51.6015269 22.3696586,47.6197353 20.8213711,44.2152993 C20.9435729,44.4411841 21.0608291,44.6778748 21.1726895,44.9217078 C22.6677311,48.1805939 31.4177709,47.4002245 35.5455728,46.272618 Z" id="fruit-inner" fill="#DD866E"></path>
                <path d="M8.81878558,53.2832197 C8.81878558,44.6003635 13.6764034,39 17.610969,39 C21.187533,39 19.689227,50.0877177 31.7775188,51.8851792 C43.8658105,53.6826407 54.5653041,47.7666073 54.3444762,45.3815954 C54.7778859,46.3487977 55.8187856,49.4041797 55.8187856,53.2832197 C55.8182028,61.9661387 49.510339,77 32.3187856,77 C15.1272322,77 8.81878558,61.966076 8.81878558,53.2832197 Z" id="fruit" fill="url(#linearGradient-1)"></path>
                <g id="A04" transform="translate(19.818786, 0.000000)" fill="#9FB83B">
                    <path d="M13.1567329,19.6597965 C14.670686,11.5948971 17.3407149,6.33315367 21.1668195,3.8745662 C24.9929241,1.41597874 31.270651,0.928051892 40,2.41078566 C37.9138686,9.88152119 34.9661129,14.840811 31.1567329,17.2886551 C27.3473417,19.7364992 21.3473417,20.5268797 13.1567329,19.6597965 Z" id="leaf-1"></path>
                    <path d="M13.2767819,14.0078525 C13.4264289,9.57696562 12.6291906,6.3986227 10.8850671,4.47282377 C9.00499624,2.39691672 5.38807013,1.07350787 0.0342887487,0.50259722 C0.13936625,5.23487116 1.12783272,8.63442609 2.99968816,10.701262 C4.72617544,12.6075876 7.75971687,13.9935674 12.1003125,14.8592014 L12.2322458,14.8852732 C12.7116277,14.9791432 13.1728126,14.6477329 13.2623309,14.1450476 C13.2703963,14.0997566 13.2752267,14.0538975 13.2767819,14.0078525 Z" id="leaf-2"></path>
                </g>
            </g>
        </g>
    </g>
</svg>