<?xml version="1.0" encoding="UTF-8"?>
<svg width="411px" height="186px" viewBox="0 0 411 186" version="1.1" xmlns="http://www.w3.org/2000/svg" xmlns:xlink="http://www.w3.org/1999/xlink">
    <title>Group 2</title>
    <defs>
        <linearGradient x1="13.347234%" y1="50%" x2="100%" y2="50%" id="linearGradient-1">
            <stop stop-color="#933122" offset="0%"></stop>
            <stop stop-color="#D72D23" offset="100%"></stop>
        </linearGradient>
    </defs>
    <g id="💻-Desktop" stroke="none" stroke-width="1" fill="none" fill-rule="evenodd">
        <g id="Desktop/project/pumello" transform="translate(-515.000000, -193.000000)">
            <g id="Group-2" transform="translate(515.000000, 193.000000)">
                <g id="Group-4">
                    <path d="M69.2793522,186 C107.387,186 138.279352,158.238427 138.279352,120.27069 C138.279352,91.3247243 99.0625302,46 69.2793522,46 C39.4961743,46 0.279352227,91.3247243 0.279352227,120.27069 C0.279352227,158.238491 31.1717045,186 69.2793522,186 Z" id="Oval" fill="#E6FF00"></path>
                    <path d="M68.2793522,182 C104.177861,182 133.279352,155.824802 133.279352,120.026651 C133.279352,92.73474 96.3359691,50 68.2793522,50 C40.2227353,50 3.27935223,92.73474 3.27935223,120.026651 C3.27935223,155.824863 32.3808435,182 68.2793522,182 Z" id="Oval" fill="#FEFCE7"></path>
                    <path d="M75.7604457,101.984621 C84.8645677,99.6354405 92.6174344,88.6789977 105.211578,91.444142 C113.336832,93.2281061 116.682643,98.364374 118.297368,104.057439 L118.249645,103.90069 C117.822749,102.526399 117.419072,101.485375 117.13385,100.850488 C117.62432,106.134252 93.8601759,119.240654 67.0114369,115.258551 C52.3575328,113.08514 46.6929847,104.780614 43.278829,97.6850765 C43.5501193,98.1601491 43.8112008,98.6576109 44.0601637,99.1702245 C47.3575703,105.959571 66.6563237,104.333801 75.7604457,101.984621 Z" id="fruit-inner" fill="#DD866E"></path>
                    <path d="M16.2793522,118.573433 C16.2793522,99.3797509 27.0281237,87 35.7343964,87 C43.6484955,87 40.333095,111.509692 67.0816555,115.483028 C93.830216,119.456364 117.505691,106.378816 117.017051,101.106685 C117.976085,103.244711 120.279352,109.998713 120.279352,118.573433 C120.278063,137.767254 106.320236,171 68.2793522,171 C30.2384681,171 16.2793522,137.767115 16.2793522,118.573433 Z" id="fruit" fill="url(#linearGradient-1)"></path>
                    <g id="A04" transform="translate(39.279352, 0.000000)" fill="#9FB83B">
                        <path d="M29.602649,42.2685625 C33.0090435,24.9290288 39.0166085,13.6162804 47.6253439,8.33031734 C56.2340793,3.04435429 70.3589646,1.99531157 90,5.18318918 C85.3062043,21.2452706 78.6737477,31.9077437 70.1026301,37.1706085 C61.5315125,42.4334733 48.0315188,44.1327913 29.602649,42.2685625 Z" id="leaf-1"></path>
                        <path d="M29.8727592,30.1168829 C30.209465,20.5904761 28.4156789,13.7570388 24.4914009,9.61657111 C20.2612415,5.15337095 12.1231578,2.30804193 0.0771496846,1.08058402 C0.313574062,11.254973 2.53762362,18.5640161 6.74929836,23.0077133 C10.6338947,27.1063133 17.459363,30.0861698 27.225703,31.947283 L27.522553,32.0033375 C28.6011624,32.2051578 29.6388283,31.4926257 29.8402446,30.4118523 C29.8583918,30.3144767 29.8692602,30.2158797 29.8727592,30.1168829 Z" id="leaf-2"></path>
                    </g>
                </g>
                <g id="Group" transform="translate(179.000000, 90.000000)" fill="#FFFFFF">
                    <path d="M2.4965327,59.0520548 C3.24712424,59.0520548 3.8508609,58.8143435 4.3077427,58.3389209 C4.76462451,57.8634983 4.99306541,57.2651215 4.99306541,56.5437907 L4.99306541,56.5437907 L4.99306541,43.2647453 C6.13526991,44.6418315 7.51407392,45.7320247 9.12947744,46.535325 C10.7448809,47.3386252 12.5152979,47.7402754 14.4407284,47.7402754 C16.8230406,47.7402754 18.9605948,47.1418986 20.8533908,45.9451452 C22.7461869,44.7483917 24.2392113,43.1253973 25.3324642,41.0761619 C26.4257171,39.0269265 26.9723435,36.707192 26.9723435,34.1169584 C26.9723435,31.5267249 26.3767655,29.1987935 25.1856093,27.1331642 C23.9944532,25.0675349 22.3872083,23.4363435 20.3638746,22.2395901 C18.3405409,21.0428366 16.0398147,20.4444599 13.461696,20.4444599 C10.9162116,20.4444599 8.63180262,21.0428366 6.60846892,22.2395901 C4.58513523,23.4363435 2.98604892,25.0675349 1.81121,27.1331642 C0.636371081,29.1987935 0.0326344144,31.5267249 0,34.1169584 L0,34.1169584 L0,56.5437907 C0,57.2651215 0.236599505,57.8634983 0.709798514,58.3389209 C1.18299752,58.8143435 1.77857559,59.0520548 2.4965327,59.0520548 Z M13.4615905,43.22927 C11.82284,43.22927 10.3397708,42.8295513 9.01238289,42.0301139 C7.68499498,41.2306765 6.64438841,40.1375682 5.89056318,38.750789 C5.13673794,37.3640098 4.75982533,35.8059226 4.75982533,34.0765274 C4.75982533,32.3145021 5.13673794,30.7400998 5.89056318,29.3533206 C6.64438841,27.9665414 7.68499498,26.8734331 9.01238289,26.0739957 C10.3397708,25.2745583 11.82284,24.8748396 13.4615905,24.8748396 C15.133116,24.8748396 16.624379,25.2745583 17.9353794,26.0739957 C19.2463798,26.8734331 20.2869864,27.9665414 21.0571991,29.3533206 C21.8274118,30.7400998 22.2125182,32.3145021 22.2125182,34.0765274 C22.2125182,35.8059226 21.8274118,37.3640098 21.0571991,38.750789 C20.2869864,40.1375682 19.2463798,41.2306765 17.9353794,42.0301139 C16.624379,42.8295513 15.133116,43.22927 13.4615905,43.22927 Z M41.1194475,47.6596497 C43.3297714,47.6596497 45.3009185,47.1839171 47.0328887,46.2324517 C47.9607299,45.7227381 48.7844257,45.1141577 49.503976,44.4067104 L49.5318743,44.3784899 L49.5318743,44.9036811 C49.5318743,45.5853824 49.7452142,46.15734 50.1718938,46.6195541 L50.2494048,46.6999821 C50.7277585,47.1757148 51.3298244,47.4135811 52.0556024,47.4135811 C52.8143703,47.4135811 53.4246836,47.1757148 53.8865423,46.6999821 C54.3484011,46.2242494 54.5793304,45.6254824 54.5793304,44.9036811 L54.5793304,44.9036811 L54.5793304,22.9543598 C54.5793304,22.1997494 54.3484011,21.5927801 53.8865423,21.133452 C53.4246836,20.6741239 52.8143703,20.4444599 52.0556024,20.4444599 C51.3298244,20.4444599 50.7277585,20.6741239 50.2494048,21.133452 C49.7710512,21.5927801 49.5318743,22.1997494 49.5318743,22.9543598 L49.5318743,22.9543598 L49.5318743,36.8326303 C49.5318743,38.0137596 49.2019752,39.080057 48.5421771,40.0315224 C47.8823789,40.9829877 46.9998988,41.7375982 45.8947368,42.2953537 C44.7895749,42.8531093 43.5277109,43.131987 42.1091448,43.131987 C40.6245989,43.131987 39.2885075,42.844907 38.1008708,42.2707469 C36.9132341,41.6965867 35.9730217,40.8107397 35.2802336,39.6132057 C34.5874455,38.4156717 34.2410514,36.8982486 34.2410514,35.0609362 L34.2410514,35.0609362 L34.2410514,22.9543598 C34.2410514,22.2325585 34.0018746,21.6337915 33.5235209,21.1580589 C33.0451672,20.6823262 32.4431014,20.4444599 31.7173234,20.4444599 C30.9915454,20.4444599 30.3894795,20.6823262 29.9111259,21.1580589 C29.4327722,21.6337915 29.1935953,22.2325585 29.1935953,22.9543598 L29.1935953,22.9543598 L29.1935953,35.0609362 C29.1935953,37.7840956 29.7131864,40.0807361 30.7523685,41.9508576 C31.7915507,43.8209792 33.2101168,45.2399749 35.0080668,46.2078448 C36.8060169,47.1757148 38.8431438,47.6596497 41.1194475,47.6596497 Z M94.2787908,47.6596497 C95.0317248,47.6596497 95.6373457,47.4217834 96.0956534,46.9460507 C96.5539611,46.470318 96.783115,45.8715511 96.783115,45.1497498 L96.783115,45.1497498 L96.783115,31.0746244 C96.783115,28.8107931 96.3820958,26.8832555 95.5800573,25.2920118 C94.7780188,23.700768 93.6568017,22.4950317 92.2164061,21.674803 C90.7760105,20.8545742 89.1228291,20.4444599 87.2568621,20.4444599 C85.1290049,20.4444599 83.2384856,20.903788 81.5853043,21.8224442 C80.4635026,22.445818 79.5112803,23.2315951 78.7286372,24.1797753 L78.6434379,24.2849667 L78.5669184,24.1708616 C77.8800414,23.1719402 77.0303182,22.3697062 76.0177488,21.7641598 L75.8646421,21.674803 C74.4242464,20.8545742 72.7710651,20.4444599 70.905098,20.4444599 C68.9736584,20.4444599 67.2550045,20.903788 65.7491364,21.8224442 C65.1356345,22.1967115 64.5764686,22.62952 64.0716386,23.1208696 L64.0290167,23.1633345 L64.0283607,23.1252408 C64.0057282,22.4690578 63.8020359,21.9295296 63.4172838,21.5066561 L63.343021,21.4287344 C62.8847133,20.9694063 62.2790924,20.7397422 61.5261583,20.7397422 C60.8059605,20.7397422 60.2085236,20.9694063 59.7338478,21.4287344 C59.259172,21.8880625 59.0218341,22.4950317 59.0218341,23.2496422 L59.0218341,23.2496422 L59.0218341,45.1497498 C59.0218341,45.8715511 59.259172,46.470318 59.7338478,46.9460507 C60.2085236,47.4217834 60.8059605,47.6596497 61.5261583,47.6596497 C62.2790924,47.6596497 62.8847133,47.4217834 63.343021,46.9460507 C63.8013287,46.470318 64.0304825,45.8715511 64.0304825,45.1497498 L64.0304825,45.1497498 L64.0304825,31.2714793 L64.0322198,31.0946991 C64.0658077,29.3957246 64.5864199,27.9838728 65.5940564,26.8591437 L65.700032,26.7438166 C66.813065,25.5626872 68.2207243,24.9721225 69.9230101,24.9721225 C71.5598233,24.9721225 72.885642,25.4724621 73.9004662,26.4731412 C74.9152904,27.4738202 75.4227025,29.007648 75.4227025,31.0746244 L75.4227025,31.0746244 L75.4227025,45.1497498 C75.4227025,45.8715511 75.6600404,46.470318 76.1347163,46.9460507 C76.6093921,47.4217834 77.2068289,47.6596497 77.9270267,47.6596497 C78.6799608,47.6596497 79.2855817,47.4217834 79.7438894,46.9460507 C80.2021971,46.470318 80.4313509,45.8715511 80.4313509,45.1497498 L80.4313509,45.1497498 L80.4313509,31.2714793 L80.4330627,31.0946991 C80.4661566,29.3957246 80.9791128,27.9838728 81.9719311,26.8591437 L82.0763482,26.7438166 C83.1730131,25.5626872 84.5724884,24.9721225 86.2747741,24.9721225 C87.9115874,24.9721225 89.2374061,25.4724621 90.2522303,26.4731412 C91.2670544,27.4738202 91.7744665,29.007648 91.7744665,31.0746244 L91.7744665,31.0746244 L91.7744665,45.1497498 C91.7744665,45.8715511 92.0118045,46.470318 92.4864803,46.9460507 C92.9611561,47.4217834 93.558593,47.6596497 94.2787908,47.6596497 Z M136.165254,47.6596497 C136.918188,47.6596497 137.523809,47.4217834 137.982116,46.9460507 C138.440424,46.470318 138.669578,45.8715511 138.669578,45.1497498 L138.669578,45.1497498 L138.669578,31.0746244 C138.669578,28.8107931 138.268559,26.8832555 137.46652,25.2920118 C136.664482,23.700768 135.543265,22.4950317 134.102869,21.674803 C132.662473,20.8545742 131.009292,20.4444599 129.143325,20.4444599 C127.015468,20.4444599 125.124948,20.903788 123.471767,21.8224442 C122.349966,22.445818 121.397743,23.2315951 120.6151,24.1797753 L120.529901,24.2849667 L120.453381,24.1708616 C119.766504,23.1719402 118.916781,22.3697062 117.904212,21.7641598 L117.751105,21.674803 C116.310709,20.8545742 114.657528,20.4444599 112.791561,20.4444599 C110.860121,20.4444599 109.141467,20.903788 107.635599,21.8224442 C107.022097,22.1967115 106.462931,22.62952 105.958101,23.1208696 L105.91548,23.1633345 L105.914824,23.1252408 C105.892191,22.4690578 105.688499,21.9295296 105.303747,21.5066561 L105.229484,21.4287344 C104.771176,20.9694063 104.165555,20.7397422 103.412621,20.7397422 C102.692423,20.7397422 102.094987,20.9694063 101.620311,21.4287344 C101.145635,21.8880625 100.908297,22.4950317 100.908297,23.2496422 L100.908297,23.2496422 L100.908297,45.1497498 C100.908297,45.8715511 101.145635,46.470318 101.620311,46.9460507 C102.094987,47.4217834 102.692423,47.6596497 103.412621,47.6596497 C104.165555,47.6596497 104.771176,47.4217834 105.229484,46.9460507 C105.687792,46.470318 105.916945,45.8715511 105.916945,45.1497498 L105.916945,45.1497498 L105.916945,31.2714793 L105.918683,31.0946991 C105.952271,29.3957246 106.472883,27.9838728 107.480519,26.8591437 L107.586495,26.7438166 C108.699528,25.5626872 110.107187,24.9721225 111.809473,24.9721225 C113.446286,24.9721225 114.772105,25.4724621 115.786929,26.4731412 C116.801753,27.4738202 117.309165,29.007648 117.309165,31.0746244 L117.309165,31.0746244 L117.309165,45.1497498 C117.309165,45.8715511 117.546503,46.470318 118.021179,46.9460507 C118.495855,47.4217834 119.093292,47.6596497 119.81349,47.6596497 C120.566424,47.6596497 121.172045,47.4217834 121.630352,46.9460507 C122.08866,46.470318 122.317814,45.8715511 122.317814,45.1497498 L122.317814,45.1497498 L122.317814,31.2714793 L122.319526,31.0946991 C122.35262,29.3957246 122.865576,27.9838728 123.858394,26.8591437 L123.962811,26.7438166 C125.059476,25.5626872 126.458951,24.9721225 128.161237,24.9721225 C129.79805,24.9721225 131.123869,25.4724621 132.138693,26.4731412 C133.153517,27.4738202 133.660929,29.007648 133.660929,31.0746244 L133.660929,31.0746244 L133.660929,45.1497498 C133.660929,45.8715511 133.898267,46.470318 134.372943,46.9460507 C134.847619,47.4217834 135.445056,47.6596497 136.165254,47.6596497 Z M156.417582,47.6596497 C157.917574,47.6596497 159.490935,47.3817769 161.137665,46.8260313 C162.784396,46.2702857 164.162106,45.5510855 165.270796,44.6684307 C165.825141,44.2434487 166.086009,43.7367395 166.0534,43.1483029 C166.020792,42.5598664 165.727315,42.0204662 165.17297,41.5301025 C164.749059,41.1705024 164.251779,40.998875 163.68113,41.0152205 C163.110481,41.031566 162.580593,41.2195387 162.091465,41.5791388 C161.439294,42.0695026 160.58332,42.5026573 159.523543,42.8786029 C158.463766,43.2545484 157.428446,43.4425212 156.417582,43.4425212 C154.558896,43.4425212 152.912165,43.0338847 151.47739,42.2166118 C150.042615,41.3993388 148.917621,40.2878475 148.102408,38.882138 C147.569384,37.9630203 147.210618,36.9600474 147.02611,35.8732195 L147.013186,35.7928462 L165.613185,35.7928462 C166.226993,35.7928462 166.739702,35.6118584 167.151314,35.2498829 L167.227307,35.1798915 C167.651218,34.771255 167.863173,34.256373 167.863173,33.6352456 C167.863173,31.052663 167.382198,28.7724714 166.420246,26.7946708 C165.458295,24.8168702 164.06428,23.2640516 162.238203,22.1362149 C160.412126,21.0083782 158.227355,20.4444599 155.68389,20.4444599 C153.107817,20.4444599 150.82522,21.0247237 148.8361,22.1852513 C146.84698,23.3457789 145.289923,24.9476339 144.164929,26.9908163 C143.039935,29.0339988 142.477438,31.3959176 142.477438,34.076573 C142.477438,36.7245374 143.072544,39.0701108 144.262755,41.1132932 C145.452966,43.1564757 147.099696,44.7583307 149.202946,45.9188583 C151.306196,47.0793859 153.711074,47.6596497 156.417582,47.6596497 Z M163.42067,31.8368649 L146.919942,31.8368649 L146.947352,31.6882815 C147.106305,30.8675269 147.351961,30.0942227 147.684318,29.3683688 L147.769214,29.1878939 C148.46283,27.7520031 149.478481,26.6214454 150.816168,25.7962208 C152.153855,24.9709962 153.764034,24.5583839 155.646704,24.5583839 C157.29817,24.5583839 158.701915,24.9379872 159.857941,25.6971939 C161.013967,26.4564005 161.905758,27.4879313 162.533315,28.7917861 C162.961195,29.6807781 163.250884,30.6503318 163.402382,31.7004471 L163.42067,31.8368649 Z M177.5386,47.343194 C178.519412,47.343194 179.320409,47.1143951 179.941591,46.6567972 C180.562772,46.1991993 180.873362,45.6108591 180.873362,44.8917767 C180.873362,44.1726942 180.669027,43.5843541 180.260355,43.1267562 C179.851683,42.6691583 179.320409,42.4403593 178.666534,42.4403593 L178.666534,42.4403593 L177.440519,42.4403593 C176.721256,42.4403593 176.132769,42.0481325 175.675056,41.263679 C175.217344,40.4792254 174.988487,39.4823157 174.988487,38.2729498 L174.988487,38.2729498 L174.988487,11.5034722 C174.988487,10.7843897 174.759631,10.1960496 174.301919,9.73845166 C173.844206,9.28085375 173.255719,9.05205479 172.536456,9.05205479 C171.817194,9.05205479 171.228706,9.28085375 170.770994,9.73845166 C170.313281,10.1960496 170.084425,10.7843897 170.084425,11.5034722 L170.084425,11.5034722 L170.084425,38.2729498 C170.084425,40.0379703 170.395016,41.598706 171.016197,42.955157 C171.637378,44.3116079 172.503763,45.3820601 173.61535,46.1665137 C174.726937,46.9509673 176.001994,47.343194 177.440519,47.343194 L177.440519,47.343194 L177.5386,47.343194 Z M188.962181,47.343194 C189.942993,47.343194 190.74399,47.1143951 191.365171,46.6567972 C191.986353,46.1991993 192.296943,45.6108591 192.296943,44.8917767 C192.296943,44.1726942 192.092607,43.5843541 191.683935,43.1267562 C191.275264,42.6691583 190.74399,42.4403593 190.090115,42.4403593 L190.090115,42.4403593 L188.8641,42.4403593 C188.144837,42.4403593 187.55635,42.0481325 187.098637,41.263679 C186.640925,40.4792254 186.412068,39.4823157 186.412068,38.2729498 L186.412068,38.2729498 L186.412068,11.5034722 C186.412068,10.7843897 186.183212,10.1960496 185.7255,9.73845166 C185.267787,9.28085375 184.6793,9.05205479 183.960037,9.05205479 C183.240775,9.05205479 182.652287,9.28085375 182.194575,9.73845166 C181.736862,10.1960496 181.508006,10.7843897 181.508006,11.5034722 L181.508006,11.5034722 L181.508006,38.2729498 C181.508006,40.0379703 181.818596,41.598706 182.439778,42.955157 C183.060959,44.3116079 183.927343,45.3820601 185.038931,46.1665137 C186.150518,46.9509673 187.425575,47.343194 188.8641,47.343194 L188.8641,47.343194 L188.962181,47.343194 Z M204.538304,47.6596497 C207.181692,47.6596497 209.515052,47.0793859 211.538386,45.9188583 C213.56172,44.7583307 215.144489,43.1564757 216.286693,41.1132932 C217.428898,39.0701108 218,36.7245374 218,34.076573 C218,31.3959176 217.420739,29.0339988 216.262217,26.9908163 C215.103696,24.9476339 213.512768,23.3457789 211.489434,22.1852513 C209.466101,21.0247237 207.149057,20.4444599 204.538304,20.4444599 C201.894916,20.4444599 199.561556,21.0247237 197.538222,22.1852513 C195.514888,23.3457789 193.923961,24.9476339 192.765439,26.9908163 C191.606917,29.0339988 191.027656,31.3959176 191.027656,34.076573 C191.027656,36.7245374 191.606917,39.0701108 192.765439,41.1132932 C193.923961,43.1564757 195.514888,44.7583307 197.538222,45.9188583 C199.561556,47.0793859 201.894916,47.6596497 204.538304,47.6596497 Z M204.538409,43.22927 C202.834109,43.22927 201.326459,42.8377088 200.015458,42.0545864 C198.704458,41.2714641 197.672045,40.1946708 196.91822,38.8242067 C196.164394,37.4537426 195.787482,35.8711828 195.787482,34.0765274 C195.787482,32.281872 196.164394,30.6911547 196.91822,29.3043755 C197.672045,27.9175963 198.704458,26.8326455 200.015458,26.0495231 C201.326459,25.2664008 202.834109,24.8748396 204.538409,24.8748396 C206.24271,24.8748396 207.75036,25.2664008 209.061361,26.0495231 C210.372361,26.8326455 211.39658,27.9175963 212.134018,29.3043755 C212.871456,30.6911547 213.240175,32.281872 213.240175,34.0765274 C213.240175,35.8711828 212.871456,37.4537426 212.134018,38.8242067 C211.39658,40.1946708 210.372361,41.2714641 209.061361,42.0545864 C207.75036,42.8377088 206.24271,43.22927 204.538409,43.22927 Z" id="pummello" fill-rule="nonzero"></path>
                    <g id="A09" transform="translate(195.000000, 0.052055)">
                        <path d="M12.1699779,16.710827 C13.5703846,9.85566253 16.0401613,5.38318062 19.579308,3.29338127 C23.1184548,1.20358193 28.9253521,0.788844108 37,2.04916782 C35.0703284,8.39929301 32.3436518,12.6146894 28.8199701,14.6953569 C25.2962885,16.7760243 19.7462911,17.4478477 12.1699779,16.710827 Z" id="leaf-1"></path>
                        <path d="M12.2810232,11.9066746 C12.4194467,8.14042078 11.6820013,5.4388293 10.068687,3.80190021 C8.32962152,2.03737921 4.98396487,0.912481692 0.0317170925,0.427207637 C0.128913781,4.44964049 1.04324527,7.33926217 2.77471155,9.09607269 C4.37171228,10.7164494 7.17773811,11.8945323 11.192789,12.6303212 L11.3148273,12.6524822 C11.7582557,12.7322717 12.1848516,12.4505729 12.2676561,12.0232905 C12.2751166,11.9847931 12.2795847,11.9458129 12.2810232,11.9066746 Z" id="leaf-2"></path>
                    </g>
                    <path d="M107.685521,66.0520548 C108.641389,66.0520548 109.522233,65.8897577 110.328052,65.5651634 C111.133871,65.2405692 111.839657,64.7834322 112.445411,64.1937527 C113.051165,63.6040731 113.520763,62.9143103 113.854205,62.1244643 C114.187648,61.3346183 114.354369,60.4744435 114.354369,59.5439399 C114.354369,58.6134364 114.187648,57.7559666 113.854205,56.9715304 C113.520763,56.1870943 113.051165,55.5000365 112.445411,54.9103569 C111.839657,54.3206773 111.133871,53.8635404 110.328052,53.5389462 C109.522233,53.2143519 108.641389,53.0520548 107.685521,53.0520548 C106.729652,53.0520548 105.84603,53.2143519 105.034653,53.5389462 C104.223277,53.8635404 103.514712,54.3206773 102.908958,54.9103569 C102.303204,55.5000365 101.833606,56.1870943 101.500164,56.9715304 C101.166721,57.7559666 101,58.6134364 101,59.5439399 C101,60.4744435 101.166721,61.3346183 101.500164,62.1244643 C101.833606,62.9143103 102.303204,63.6040731 102.908958,64.1937527 C103.514712,64.7834322 104.223277,65.2405692 105.034653,65.5651634 C105.84603,65.8897577 106.729652,66.0520548 107.685521,66.0520548 Z M107.685589,65.1234834 C106.867574,65.1234834 106.111191,64.9844022 105.416439,64.7062398 C104.721686,64.4280775 104.113778,64.0353776 103.592714,63.5281404 C103.07165,63.0209031 102.668246,62.4291263 102.382501,61.75281 C102.096756,61.0764936 101.953883,60.3401815 101.953883,59.5438735 C101.953883,58.7584739 102.096756,58.0276159 102.382501,57.3512996 C102.668246,56.6749833 103.07165,56.0832065 103.592714,55.5759692 C104.113778,55.0687319 104.721686,54.6760321 105.416439,54.3978698 C106.111191,54.1197074 106.867574,53.9806262 107.685589,53.9806262 C108.492398,53.9806262 109.243178,54.1197074 109.93793,54.3978698 C110.632683,54.6760321 111.240591,55.0687319 111.761655,55.5759692 C112.282719,56.0832065 112.686123,56.6749833 112.971868,57.3512996 C113.257613,58.0276159 113.400485,58.7584739 113.400485,59.5438735 C113.400485,60.3401815 113.257613,61.0764936 112.971868,61.75281 C112.686123,62.4291263 112.282719,63.0209031 111.761655,63.5281404 C111.240591,64.0353776 110.632683,64.4280775 109.93793,64.7062398 C109.243178,64.9844022 108.492398,65.1234834 107.685589,65.1234834 Z M124.300248,66.0520548 C124.552471,66.0520548 124.719706,65.9816424 124.801952,65.8408177 C124.884199,65.6999929 124.854042,65.5212538 124.711481,65.3046004 L124.711481,65.3046004 L121.881463,60.8378205 L121.91944,60.8270613 C122.156759,60.7575055 122.38332,60.6686286 122.599123,60.5604307 L122.663542,60.5273917 C123.283132,60.2024115 123.768387,59.7528556 124.119306,59.1787239 C124.470224,58.6045922 124.645684,57.9492155 124.645684,57.2125938 C124.645684,56.4543067 124.470224,55.7880973 124.119306,55.2139657 C123.768387,54.639834 123.283132,54.1875699 122.663542,53.8571734 C122.043951,53.5267769 121.333889,53.3615786 120.533356,53.3615786 L120.533356,53.3615786 L117.391538,53.3615786 C117.248977,53.3615786 117.13109,53.4049093 117.037877,53.4915707 C116.944665,53.5782321 116.898058,53.6973915 116.898058,53.8490489 L116.898058,53.8490489 L116.898058,65.5645845 C116.898058,65.7054093 116.944665,65.8218605 117.037877,65.9139382 C117.13109,66.0060159 117.248977,66.0520548 117.391538,66.0520548 C117.545064,66.0520548 117.665693,66.0060159 117.753422,65.9139382 C117.841152,65.8218605 117.885017,65.7054093 117.885017,65.5645845 L117.885017,65.5645845 L117.885017,61.0148619 L120.533356,61.0148619 C120.61617,61.0148619 120.698015,61.013123 120.778893,61.0096453 L120.825024,61.0073437 L123.856117,65.7920706 C123.901809,65.8552612 123.949406,65.9090485 123.998906,65.9534323 L124.028834,65.9789343 C124.089149,66.0276813 124.17962,66.0520548 124.300248,66.0520548 Z M120.795121,59.8615786 L118.169903,59.8615786 L118.169903,54.29015 L120.795121,54.29015 C121.403867,54.29015 121.939237,54.4091977 122.401232,54.6472929 C122.863227,54.8853881 123.227388,55.216076 123.493714,55.6393564 C123.760041,56.0626368 123.893204,56.5494093 123.893204,57.0996738 C123.893204,57.6393564 123.760041,58.1155469 123.493714,58.5282453 C123.227388,58.9409437 122.863227,59.2663405 122.401232,59.5044357 C121.939237,59.742531 121.403867,59.8615786 120.795121,59.8615786 L120.795121,59.8615786 Z M132.844278,66.0520548 C133.624028,66.0520548 134.383711,65.9519716 135.123327,65.7518051 C135.862943,65.5516386 136.51369,65.1864701 137.075569,64.6562995 C137.132904,64.6022004 137.167304,64.5481014 137.178771,64.4940024 C137.190238,64.4399033 137.195972,64.3803944 137.195972,64.3154755 L137.195972,64.3154755 L137.195972,60.1931285 C137.195972,60.0524709 137.150104,59.938863 137.058369,59.8523045 C136.966633,59.765746 136.840497,59.7224668 136.679961,59.7224668 L136.679961,59.7224668 L133.274287,59.7224668 C133.125217,59.7224668 133.001948,59.7630411 132.904479,59.8441896 C132.80701,59.9253382 132.758276,60.0254214 132.758276,60.1444393 C132.758276,60.274277 132.80701,60.3824751 132.904479,60.4690336 C133.001948,60.555592 133.125217,60.5988713 133.274287,60.5988713 L133.274287,60.5988713 L136.163949,60.5988713 L136.163949,64.0708187 L136.105835,64.1110768 C135.701867,64.3862582 135.276265,64.6017711 134.829029,64.7576156 L134.744919,64.7861372 C134.154373,64.9808937 133.520826,65.078272 132.844278,65.078272 C132.064527,65.078272 131.330645,64.9349096 130.64263,64.6481846 C129.954615,64.3614597 129.349735,63.9638317 128.827991,63.4553007 C128.306246,62.9467697 127.896304,62.3570902 127.598164,61.686262 C127.300024,61.0154339 127.150954,60.3013265 127.150954,59.5439399 C127.150954,58.808193 127.300024,58.1103153 127.598164,57.450307 C127.896304,56.7902987 128.309113,56.203324 128.836591,55.6893831 C129.364069,55.1754422 129.971815,54.7696994 130.65983,54.4721547 C131.347845,54.1746099 132.075994,54.0258376 132.844278,54.0258376 C133.520826,54.0258376 134.151506,54.112396 134.736318,54.285513 C135.321131,54.4586299 135.842876,54.7399449 136.301552,55.129458 C136.358887,55.1727373 136.410488,55.2079017 136.456356,55.2349512 C136.502223,55.2620007 136.548091,55.2836403 136.593959,55.29987 C136.639826,55.3160997 136.685694,55.3242146 136.731562,55.3242146 C136.892098,55.3242146 137.018235,55.2728205 137.10997,55.1700323 C137.201705,55.0672441 137.247573,54.9482262 137.247573,54.8129786 C137.247573,54.677731 137.195972,54.5722379 137.092769,54.4964992 C136.473556,54.0096079 135.808475,53.6471443 135.097526,53.4091085 C134.386578,53.1710727 133.635495,53.0520548 132.844278,53.0520548 C131.903991,53.0520548 131.026772,53.2224668 130.212621,53.5632907 C129.39847,53.9041147 128.684654,54.3747764 128.071174,54.9752758 C127.457694,55.5757751 126.978951,56.2682429 126.634943,57.052679 C126.290936,57.8371151 126.118932,58.6675354 126.118932,59.5439399 C126.118932,60.4311642 126.296669,61.2669945 126.652144,62.0514306 C127.007618,62.8358667 127.494962,63.5283344 128.114175,64.1288338 C128.733389,64.7293332 129.447204,65.1999949 130.255622,65.5408188 C131.064039,65.8816428 131.926924,66.0520548 132.844278,66.0520548 Z M149.442097,66.0520548 C149.635103,66.0520548 149.782697,65.9735179 149.884877,65.8164442 C149.987056,65.6593704 149.992733,65.5050048 149.901907,65.3533474 L149.901907,65.3533474 L144.724791,53.7028078 C144.622611,53.4753217 144.457988,53.3615786 144.230922,53.3615786 C143.992502,53.3615786 143.827879,53.4753217 143.737052,53.7028078 L143.737052,53.7028078 L138.576967,65.3533474 C138.497494,65.4941721 138.500332,65.6458296 138.585482,65.8083197 C138.670632,65.9708097 138.821064,66.0520548 139.036777,66.0520548 C139.15031,66.0520548 139.246813,66.0276813 139.326286,65.9789343 C139.40576,65.9301872 139.468203,65.8516503 139.513616,65.7433236 L139.513616,65.7433236 L140.773581,62.867249 L147.701099,62.867249 L148.965257,65.7433236 C149.016347,65.8408177 149.074334,65.914182 149.139219,65.9634164 L149.161102,65.9789343 C149.234899,66.0276813 149.328564,66.0520548 149.442097,66.0520548 Z M147.104369,61.7187215 L141.063107,61.7187215 L144.078626,54.9091977 L147.104369,61.7187215 Z M161.55701,66.0520548 C161.688085,66.0520548 161.802777,66.0060159 161.901083,65.9139382 C161.99939,65.8218605 162.048544,65.7054093 162.048544,65.5645845 L162.048544,65.5645845 L162.048544,53.8490489 C162.048544,53.7082241 161.99939,53.5917729 161.901083,53.4996952 C161.802777,53.4076175 161.688085,53.3615786 161.55701,53.3615786 C161.415011,53.3615786 161.297589,53.4076175 161.204743,53.4996952 C161.111898,53.5917729 161.065475,53.7082241 161.065475,53.8490489 L161.065475,53.8490489 L161.065475,64.2646638 L152.742163,53.5240687 C152.643857,53.415742 152.518242,53.3615786 152.365321,53.3615786 C152.223322,53.3615786 152.1059,53.4076175 152.013054,53.4996952 C151.920209,53.5917729 151.873786,53.7082241 151.873786,53.8490489 L151.873786,53.8490489 L151.873786,65.5645845 C151.873786,65.7054093 151.920209,65.8218605 152.013054,65.9139382 C152.1059,66.0060159 152.223322,66.0520548 152.365321,66.0520548 C152.507319,66.0520548 152.624741,66.0060159 152.717587,65.9139382 C152.810432,65.8218605 152.856855,65.7054093 152.856855,65.5645845 L152.856855,65.5645845 L152.856855,55.1489696 L161.196551,65.9058137 C161.240243,65.9491444 161.292127,65.9843506 161.352204,66.0114323 C161.41228,66.038514 161.480549,66.0520548 161.55701,66.0520548 Z M166.023058,66.0520548 C166.160841,66.0520548 166.274778,66.0060159 166.364867,65.9139382 C166.454956,65.8218605 166.5,65.7054093 166.5,65.5645845 L166.5,65.5645845 L166.5,53.8490489 C166.5,53.7082241 166.454956,53.5917729 166.364867,53.4996952 C166.274778,53.4076175 166.160841,53.3615786 166.023058,53.3615786 C165.885275,53.3615786 165.771339,53.4076175 165.68125,53.4996952 C165.591161,53.5917729 165.546117,53.7082241 165.546117,53.8490489 L165.546117,53.8490489 L165.546117,65.5645845 C165.546117,65.7054093 165.591161,65.8218605 165.68125,65.9139382 C165.771339,66.0060159 165.885275,66.0520548 166.023058,66.0520548 Z M175.769035,66.0520548 C176.548785,66.0520548 177.308468,65.9519716 178.048084,65.7518051 C178.7877,65.5516386 179.438448,65.1864701 180.000326,64.6562995 C180.057661,64.6022004 180.092062,64.5481014 180.103529,64.4940024 C180.114996,64.4399033 180.120729,64.3803944 180.120729,64.3154755 C180.120729,64.174818 180.074861,64.06121 179.983126,63.9746515 C179.891391,63.8880931 179.782455,63.833994 179.656319,63.8123544 C179.530183,63.7907148 179.421247,63.8177643 179.329512,63.893503 C178.813501,64.2938359 178.260222,64.5913806 177.669676,64.7861372 C177.07913,64.9808937 176.445583,65.078272 175.769035,65.078272 C174.989285,65.078272 174.255402,64.9349096 173.567387,64.6481846 C172.879372,64.3614597 172.274493,63.9638317 171.752748,63.4553007 C171.231003,62.9467697 170.821061,62.3570902 170.522921,61.686262 C170.224782,61.0154339 170.075712,60.3013265 170.075712,59.5439399 C170.075712,58.808193 170.224782,58.1103153 170.522921,57.450307 C170.821061,56.7902987 171.23387,56.203324 171.761348,55.6893831 C172.288826,55.1754422 172.896573,54.7696994 173.584588,54.4721547 C174.272602,54.1746099 175.000752,54.0258376 175.769035,54.0258376 C176.445583,54.0258376 177.076263,54.112396 177.661076,54.285513 C178.245888,54.4586299 178.767633,54.7399449 179.22631,55.129458 C179.283644,55.1727373 179.335245,55.2079017 179.381113,55.2349512 C179.426981,55.2620007 179.472848,55.2836403 179.518716,55.29987 C179.564584,55.3160997 179.610451,55.3242146 179.656319,55.3242146 C179.816856,55.3242146 179.942992,55.2728205 180.034727,55.1700323 C180.126462,55.0672441 180.17233,54.9482262 180.17233,54.8129786 C180.17233,54.677731 180.120729,54.5722379 180.017527,54.4964992 C179.398313,54.0096079 178.733232,53.6471443 178.022284,53.4091085 C177.311335,53.1710727 176.560252,53.0520548 175.769035,53.0520548 C174.828748,53.0520548 173.951529,53.2224668 173.137378,53.5632907 C172.323227,53.9041147 171.609411,54.3747764 170.995932,54.9752758 C170.382452,55.5757751 169.903708,56.2682429 169.5597,57.052679 C169.215693,57.8371151 169.043689,58.6675354 169.043689,59.5439399 C169.043689,60.4311642 169.221426,61.2669945 169.576901,62.0514306 C169.932375,62.8358667 170.419719,63.5283344 171.038932,64.1288338 C171.658146,64.7293332 172.371961,65.1999949 173.180379,65.5408188 C173.988796,65.8816428 174.851682,66.0520548 175.769035,66.0520548 Z M187.661168,66.0520548 C187.80379,66.0520548 187.921727,66.0060159 188.01498,65.9139382 C188.108233,65.8218605 188.15486,65.7054093 188.15486,65.5645845 L188.15486,65.5645845 L188.15486,60.2024115 L193.601928,60.2024115 C193.74455,60.2024115 193.862488,60.1536645 193.955741,60.0561704 C194.048994,59.9586763 194.09562,59.8395169 194.09562,59.6986922 C194.09562,59.5578674 194.048994,59.4414162 193.955741,59.3493385 C193.862488,59.2572608 193.74455,59.2112219 193.601928,59.2112219 L193.601928,59.2112219 L188.15486,59.2112219 L188.15486,54.3365192 L195.576696,54.3365192 C195.708348,54.3365192 195.823542,54.2877721 195.922281,54.1902781 C196.021019,54.092784 196.070388,53.979041 196.070388,53.8490489 C196.070388,53.7082241 196.021019,53.5917729 195.922281,53.4996952 C195.823542,53.4076175 195.708348,53.3615786 195.576696,53.3615786 L195.576696,53.3615786 L187.661168,53.3615786 C187.518546,53.3615786 187.400608,53.4076175 187.307355,53.4996952 C187.214102,53.5917729 187.167476,53.7082241 187.167476,53.8490489 L187.167476,53.8490489 L187.167476,65.5645845 C187.167476,65.7054093 187.214102,65.8218605 187.307355,65.9139382 C187.400608,66.0060159 187.518546,66.0520548 187.661168,66.0520548 Z M203.534275,66.0520548 C204.496447,66.0520548 205.349282,65.8689425 206.092778,65.502718 C206.836275,65.1364935 207.418498,64.6269637 207.839448,63.9741286 C208.260399,63.3212936 208.470874,62.5755755 208.470874,61.7369744 L208.470874,61.7369744 L208.470874,53.8392628 C208.470874,53.6906499 208.427139,53.5738827 208.339669,53.4889611 C208.252198,53.4040394 208.131927,53.3615786 207.978854,53.3615786 C207.836715,53.3615786 207.719177,53.4040394 207.62624,53.4889611 C207.533303,53.5738827 207.486834,53.6906499 207.486834,53.8392628 L207.486834,53.8392628 L207.486834,61.7369744 C207.486834,62.3951171 207.317361,62.9762995 206.978414,63.4805217 C206.639467,63.9847438 206.174782,64.3801602 205.584358,64.6667707 C204.993934,64.9533812 204.310573,65.0966864 203.534275,65.0966864 C202.768911,65.0966864 202.088284,64.9533812 201.492393,64.6667707 C200.896503,64.3801602 200.431817,63.9847438 200.098337,63.4805217 C199.764857,62.9762995 199.598117,62.3951171 199.598117,61.7369744 L199.598117,61.7369744 L199.598117,53.8392628 C199.598117,53.6906499 199.554382,53.5738827 199.466912,53.4889611 C199.379442,53.4040394 199.25917,53.3615786 199.106097,53.3615786 C198.963958,53.3615786 198.84642,53.4040394 198.753483,53.4889611 C198.660546,53.5738827 198.614078,53.6906499 198.614078,53.8392628 L198.614078,53.8392628 L198.614078,61.7369744 C198.614078,62.5755755 198.824553,63.3212936 199.245503,63.9741286 C199.666453,64.6269637 200.245943,65.1364935 200.983973,65.502718 C201.722003,65.8689425 202.572103,66.0520548 203.534275,66.0520548 Z M220.377667,66.0520548 C220.509318,66.0520548 220.624513,66.0060159 220.723252,65.9139382 C220.82199,65.8218605 220.871359,65.7054093 220.871359,65.5645845 C220.871359,65.4345924 220.82199,65.3208494 220.723252,65.2233553 C220.624513,65.1258613 220.509318,65.0771142 220.377667,65.0771142 L220.377667,65.0771142 L212.955831,65.0771142 L212.955831,60.2024115 L218.402899,60.2024115 C218.545521,60.2024115 218.663459,60.1536645 218.756712,60.0561704 C218.849965,59.9586763 218.896591,59.8395169 218.896591,59.6986922 C218.896591,59.5578674 218.849965,59.4414162 218.756712,59.3493385 C218.663459,59.2572608 218.545521,59.2112219 218.402899,59.2112219 L218.402899,59.2112219 L212.955831,59.2112219 L212.955831,54.3365192 L220.377667,54.3365192 C220.509318,54.3365192 220.624513,54.2877721 220.723252,54.1902781 C220.82199,54.092784 220.871359,53.979041 220.871359,53.8490489 C220.871359,53.7082241 220.82199,53.5917729 220.723252,53.4996952 C220.624513,53.4076175 220.509318,53.3615786 220.377667,53.3615786 L220.377667,53.3615786 L212.462139,53.3615786 C212.319516,53.3615786 212.201579,53.4076175 212.108326,53.4996952 C212.015073,53.5917729 211.968447,53.7082241 211.968447,53.8490489 L211.968447,53.8490489 L211.968447,65.5645845 C211.968447,65.7054093 212.015073,65.8218605 212.108326,65.9139382 C212.201579,66.0060159 212.319516,66.0520548 212.462139,66.0520548 L212.462139,66.0520548 L220.377667,66.0520548 Z M231.504971,66.0520548 C231.65898,66.0520548 231.779987,66.0114323 231.867992,65.9301872 C231.955997,65.8489422 232,65.7433236 232,65.6133315 C232,65.4833395 231.955997,65.3777209 231.867992,65.2964759 C231.779987,65.2152308 231.65898,65.1746083 231.504971,65.1746083 L231.504971,65.1746083 L224.723068,65.1746083 L224.723068,53.8490489 C224.723068,53.7082241 224.676316,53.5917729 224.58281,53.4996952 C224.489305,53.4076175 224.371048,53.3615786 224.228039,53.3615786 C224.096031,53.3615786 223.980524,53.4076175 223.881519,53.4996952 C223.782513,53.5917729 223.73301,53.7082241 223.73301,53.8490489 L223.73301,53.8490489 L223.73301,65.5645845 C223.73301,65.7054093 223.782513,65.8218605 223.881519,65.9139382 C223.980524,66.0060159 224.096031,66.0520548 224.228039,66.0520548 L224.228039,66.0520548 L231.504971,66.0520548 Z" id="ORGANICFUEL" fill-rule="nonzero"></path>
                </g>
            </g>
        </g>
    </g>
</svg>