<?xml version="1.0" encoding="UTF-8"?>
<svg width="72px" height="46px" viewBox="0 0 72 46" version="1.1" xmlns="http://www.w3.org/2000/svg" xmlns:xlink="http://www.w3.org/1999/xlink">
    <title>Icons / behance</title>
    <g id="Icons-/-behance" stroke="none" stroke-width="1" fill="none" fill-rule="evenodd">
        <g id="behance-brands" fill="#E5E5E5" fill-rule="nonzero">
            <path d="M35.05,11.025 C35.05,2.2 28.475,0.05 20.8875,0.05 L0,0.05 L0,44.35 L21.475,44.35 C29.525,44.35 37.0875,40.4875 37.0875,31.4875 C37.0875,25.925 34.45,21.8125 29,20.275 C32.975,18.375 35.05,15.5 35.05,11.025 Z M9.7375,7.6125 L18.875,7.6125 C22.3875,7.6125 25.55,8.6 25.55,12.675 C25.55,16.4375 23.0875,17.95 19.6125,17.95 L9.7375,17.95 L9.7375,7.6125 L9.7375,7.6125 Z M20.15,36.825 L9.7375,36.825 L9.7375,24.625 L20.35,24.625 C24.6375,24.625 27.35,26.4125 27.35,30.95 C27.35,35.425 24.1125,36.825 20.15,36.825 L20.15,36.825 Z M64.9625,6.7375 L47,6.7375 L47,2.375 L64.9625,2.375 L64.9625,6.7375 L64.9625,6.7375 Z M72,28.775 C72,19.2875 66.45,11.375 56.3875,11.375 C46.6125,11.375 39.975,18.725 39.975,28.35 C39.975,38.3375 46.2625,45.1875 56.3875,45.1875 C64.05,45.1875 69.0125,41.7375 71.4,34.4 L63.625,34.4 C62.7875,37.1375 59.3375,38.5875 56.6625,38.5875 C51.5,38.5875 48.7875,35.5625 48.7875,30.425 L71.925,30.425 C71.9625,29.9 72,29.3375 72,28.775 Z M48.8,24.875 C49.0875,20.6625 51.8875,18.025 56.1125,18.025 C60.5375,18.025 62.7625,20.625 63.1375,24.875 L48.8,24.875 Z" id="Shape"></path>
        </g>
    </g>
</svg>