<?xml version="1.0" encoding="UTF-8"?>
<svg width="62px" height="61px" viewBox="0 0 62 61" version="1.1" xmlns="http://www.w3.org/2000/svg" xmlns:xlink="http://www.w3.org/1999/xlink">
    <title>Icons / github</title>
    <g id="Icons-/-github" stroke="none" stroke-width="1" fill="none" fill-rule="evenodd">
        <g id="github-brands" fill="#E5E5E5" fill-rule="nonzero">
            <path d="M20.7375,48.675 C20.7375,48.925 20.45,49.125 20.0875,49.125 C19.675,49.1625 19.3875,48.9625 19.3875,48.675 C19.3875,48.425 19.675,48.225 20.0375,48.225 C20.4125,48.1875 20.7375,48.3875 20.7375,48.675 Z M16.85,48.1125 C16.7625,48.3625 17.0125,48.65 17.3875,48.725 C17.7125,48.85 18.0875,48.725 18.1625,48.475 C18.2375,48.225 18,47.9375 17.625,47.825 C17.3,47.7375 16.9375,47.8625 16.85,48.1125 Z M22.375,47.9 C22.0125,47.9875 21.7625,48.225 21.8,48.5125 C21.8375,48.7625 22.1625,48.925 22.5375,48.8375 C22.9,48.75 23.15,48.5125 23.1125,48.2625 C23.075,48.025 22.7375,47.8625 22.375,47.9 Z M30.6,0 C13.2625,0 0,13.1625 0,30.5 C0,44.3625 8.725,56.225 21.1875,60.4 C22.7875,60.6875 23.35,59.7 23.35,58.8875 C23.35,58.1125 23.3125,53.8375 23.3125,51.2125 C23.3125,51.2125 14.5625,53.0875 12.725,47.4875 C12.725,47.4875 11.3,43.85 9.25,42.9125 C9.25,42.9125 6.3875,40.95 9.45,40.9875 C9.45,40.9875 12.5625,41.2375 14.275,44.2125 C17.0125,49.0375 21.6,47.65 23.3875,46.825 C23.675,44.825 24.4875,43.4375 25.3875,42.6125 C18.4,41.8375 11.35,40.825 11.35,28.8 C11.35,25.3625 12.3,23.6375 14.3,21.4375 C13.975,20.625 12.9125,17.275 14.625,12.95 C17.2375,12.1375 23.25,16.325 23.25,16.325 C25.75,15.625 28.4375,15.2625 31.1,15.2625 C33.7625,15.2625 36.45,15.625 38.95,16.325 C38.95,16.325 44.9625,12.125 47.575,12.95 C49.2875,17.2875 48.225,20.625 47.9,21.4375 C49.9,23.65 51.125,25.375 51.125,28.8 C51.125,40.8625 43.7625,41.825 36.775,42.6125 C37.925,43.6 38.9,45.475 38.9,48.4125 C38.9,52.625 38.8625,57.8375 38.8625,58.8625 C38.8625,59.675 39.4375,60.6625 41.025,60.375 C53.525,56.225 62,44.3625 62,30.5 C62,13.1625 47.9375,0 30.6,0 Z M12.15,43.1125 C11.9875,43.2375 12.025,43.525 12.2375,43.7625 C12.4375,43.9625 12.725,44.05 12.8875,43.8875 C13.05,43.7625 13.0125,43.475 12.8,43.2375 C12.6,43.0375 12.3125,42.95 12.15,43.1125 Z M10.8,42.1 C10.7125,42.2625 10.8375,42.4625 11.0875,42.5875 C11.2875,42.7125 11.5375,42.675 11.625,42.5 C11.7125,42.3375 11.5875,42.1375 11.3375,42.0125 C11.0875,41.9375 10.8875,41.975 10.8,42.1 Z M14.85,46.55 C14.65,46.7125 14.725,47.0875 15.0125,47.325 C15.3,47.6125 15.6625,47.65 15.825,47.45 C15.9875,47.2875 15.9125,46.9125 15.6625,46.675 C15.3875,46.3875 15.0125,46.35 14.85,46.55 Z M13.425,44.7125 C13.225,44.8375 13.225,45.1625 13.425,45.45 C13.625,45.7375 13.9625,45.8625 14.125,45.7375 C14.325,45.575 14.325,45.25 14.125,44.9625 C13.95,44.675 13.625,44.55 13.425,44.7125 Z" id="Shape"></path>
        </g>
    </g>
</svg>