<?xml version="1.0" encoding="UTF-8"?>
<svg width="103px" height="86px" viewBox="0 0 103 86" version="1.1" xmlns="http://www.w3.org/2000/svg" xmlns:xlink="http://www.w3.org/1999/xlink">
    <title>Logos / iconic/ white</title>
    <defs>
        <path d="M50.1346596,42.348702 L51.1589012,42.5681719 C51.315871,42.5965346 51.4624401,42.6162704 52.8111728,42.8954491 L53.0815982,40.7607695 L53.0815982,40.7607695 L51.9966984,40.543776 C51.6993925,40.4881141 51.7443179,40.5042511 51.4997513,40.4520295 L51.0531438,40.3534629 C50.2295163,40.1690295 49.8223826,40.1155711 49.0791779,39.9353065 L48.8352024,42.0741182 L48.8352024,42.0741182 L49.1854532,42.1561833 C49.5024135,42.2262234 49.7443309,42.2677407 50.1346596,42.348702 L50.1346596,42.348702 Z" id="path-1"></path>
    </defs>
    <g id="Logos-/-iconic/-white" stroke="none" stroke-width="1" fill="none" fill-rule="evenodd">
        <g id="Logo" transform="translate(0.084373, 0.851989)">
            <g id="JH" transform="translate(0.089953, 0.314005)" fill="#FFFFFF">
                <path d="M53.8420342,0.164328502 C53.6472319,-0.0100244741 52.6397034,0.822040655 52.2721882,1.10704212 C50.3850642,2.57093044 48.1411827,3.28760923 45.5192315,3.50899691 C38.8675126,4.07057807 33.109872,0.189444046 25.4582254,1.40212088 C20.1806924,2.23853435 16.5667573,5.07482326 15.2084956,6.16695622 C13.2503452,7.74138669 10.0806594,10.289975 8.78584264,14.7947242 C8.39263019,16.1622973 6.72245826,21.9825504 10.4461453,26.2817132 C10.7058188,26.5816772 14.3960335,30.6925084 19.5786403,29.6982463 C22.48516,29.141131 25.618301,27.0245646 26.4662418,23.7240789 C27.4713454,19.8095363 24.7744905,16.3324076 24.5008013,16.409423 C24.3431162,16.4537985 24.8674292,17.7097999 24.1802193,18.5788313 C23.5432269,19.3844094 22.2748626,19.3392444 22.0781533,19.329168 C20.400197,19.2435227 18.9591463,17.7514947 18.4088646,16.4999491 C17.0995519,13.5221578 19.5182846,8.9201886 22.9119398,6.8453977 C27.3521259,4.13083402 33.4656354,5.73966729 36.8958215,8.88896467 C40.2818906,11.997799 40.8902538,16.4440344 41.0852678,20.2576595 C41.3223828,24.8965615 41.1066616,31.672614 40.0556875,38.5291108 C39.8094008,40.1360605 39.6778604,40.938234 39.4538828,41.9803182 C37.8532177,49.4280038 34.889666,54.0820973 32.0175482,58.5927204 C31.5157582,59.3806958 30.7304573,60.5671186 29.3422632,61.7370571 C28.6197759,62.3459497 27.4135578,63.2204088 25.7516379,63.8542858 C22.4993075,65.0949202 19.6180578,64.6070418 18.7593226,64.4338999 C17.8255372,64.245558 14.7703332,63.5192776 12.1718485,60.8238968 C10.7161028,59.3138318 9.9895748,57.7933018 9.67956505,57.0568668 C7.80697554,52.6087374 9.23906237,48.5173251 9.44821272,47.9481769 C11.1657991,43.2746308 15.0961925,41.3353498 15.8777398,40.9690549 C14.2947595,41.4813039 12.1823142,42.36984 10.015362,43.9560431 C8.81191341,44.8369961 7.84416093,45.7481962 7.08183432,46.5726545 C7.08183432,46.5726545 7.06160742,46.5928152 7.04155776,46.6129468 C4.96975499,48.6967594 2.78971068,51.6561858 1.55833426,55.6288618 C-0.808078058,63.2635143 1.38589185,71.2295505 5.81519099,76.520033 C6.99957441,77.9347343 9.82271992,81.1805702 14.6150596,82.6997716 C20.7724714,84.6516278 26.4724037,82.4537492 28.8592003,81.3266945 C28.8592003,81.3266945 29.3578397,81.0941657 29.8110467,80.851642 C33.2957509,78.9871553 42.5566206,69.5795183 46.130515,42.0920226 C46.2752694,40.9786086 46.4107337,39.8355602 46.5360505,38.6621134 C46.603256,38.0332374 46.6677915,37.3965123 46.7290886,36.750077 C46.7290886,36.750077 49.5050206,7.45659192 53.3154466,1.41697697 C53.3904411,1.2980946 54.0254941,0.328544684 53.8420342,0.164328502" id="J-Fill"></path>
                <path d="M47.7182952,83.8597932 C47.9130414,84.0341373 48.920626,83.2020811 49.2880851,82.9170707 C51.175218,81.4531267 53.4191467,80.7365125 56.041098,80.5151248 C62.6928168,79.9535436 68.4504101,83.834613 76.1020479,82.6219919 C81.3795809,81.7855785 84.993581,78.9492427 86.3517777,77.8571566 C88.3099281,76.2827261 91.4796701,73.7341467 92.7744868,69.2293975 C93.1676993,67.8618244 94.8378712,62.0415713 91.114193,57.7423528 C90.8545195,57.4423888 87.1642398,53.3316045 81.981633,54.3258666 C79.0751694,54.8829907 75.9419723,56.9995482 75.0940316,60.3000339 C74.088984,64.2145854 76.7857828,67.6917052 77.0594721,67.6146898 C77.2172133,67.5703232 76.6929002,66.3143218 77.3800628,65.4452258 C78.0170553,64.6396477 79.2854669,64.6848773 79.4821761,64.6949537 C81.1600763,64.7805902 82.601192,66.2725713 83.1514649,67.5241726 C84.4607775,70.5019639 82.0420448,75.1039331 78.6483985,77.1786683 C74.2082035,79.8932877 68.0946468,78.2843898 64.6645079,75.135157 C61.2783827,72.0263138 60.6700845,67.5800316 60.4750617,63.7664622 C60.2379466,59.1275602 60.4536767,52.351452 61.5046508,45.4949552 C61.7509287,43.8880612 61.8824691,43.0858878 62.1064554,42.0437478 C63.7071117,34.5961179 66.6706161,29.9419598 69.5427251,25.4313924 C70.0445239,24.6433613 70.829816,23.4569942 72.2180101,22.2870557 C72.9404974,21.6781631 74.1467716,20.8037129 75.8087004,20.1697802 C79.0609658,18.9291926 81.9422716,19.4170799 82.8010069,19.5902218 C83.7347361,19.7785548 86.7900051,20.5047884 89.3884248,23.2002161 C90.8442266,24.7102899 91.5707635,26.2307642 91.8807732,26.9671992 C93.7532978,31.4153754 92.3212109,35.5067877 92.1121167,36.0759448 C90.394483,40.7494263 86.4640808,42.688763 85.6825424,43.0550022 C87.26557,42.5428178 89.3779591,41.6542728 91.5449763,40.0680229 C92.748416,39.1871256 93.7161124,38.2759166 94.4784951,37.4514673 C94.4784951,37.4514673 94.498722,37.4313065 94.5187717,37.4111749 C96.5905745,35.3273623 98.7706188,32.3679359 100.001995,28.3952599 C102.368416,20.7605517 100.174381,12.7945624 95.7451385,7.50408874 C94.5606989,6.08937857 91.7376183,2.84349576 86.9452698,1.3243501 C80.7878581,-0.627506067 75.0879345,1.57031678 72.7011292,2.69742725 C72.7011292,2.69742725 72.2024897,2.929956 71.7492916,3.17242397 C68.2645224,5.03695753 59.0037088,14.4446034 55.4297671,41.9320345 C55.2850127,43.0454485 55.1495484,44.1884969 55.0242316,45.3619437 C54.9570261,45.9908197 54.8924818,46.6276005 54.8312496,47.2739889 C54.8312408,47.2740447 52.0553177,76.5674741 48.2448267,82.6071359 C48.1698883,82.7260271 47.5347792,83.6955681 47.7182952,83.8597932" id="H-Fill"></path>
            </g>
            <path d="M24.6783141,39.33672 L24.4146152,39.3988296 C22.4227388,39.8731077 20.8855667,40.360279 19.8084658,40.7327182 L18.6919313,41.1243932 C18.2649173,41.2797635 17.9429177,41.409559 17.6140644,41.5675433 C15.038458,42.8050509 13.5416747,44.6082742 13.1819271,45.057147 C11.8468056,46.7229435 11.2359965,48.3721853 10.949485,49.3654627 L10.8417391,49.7636304 C10.5879848,50.7680605 10.2741279,52.5482959 10.6073008,54.6720394 C11.240465,58.7084427 13.717092,61.2190877 14.5970867,62.0351741 L14.4629544,61.8557838 C13.7181116,60.8379277 11.416971,57.3215516 12.1034995,52.6210796 C12.7390184,48.2699439 15.5589328,45.4761291 17.4245185,44.1540425 C19.0845692,42.9775198 20.5888584,42.5471787 23.5975404,41.68657 C26.5837944,40.832406 29.0273368,40.5624244 31.1229502,40.341876 C33.6914194,40.0715727 35.8686517,40.0165909 37.4709414,40.0255287 L37.8727215,37.8310496 L37.8727215,37.8310496 L37.0964364,37.8369056 C36.3418899,37.8475836 35.4207359,37.8751334 34.376442,37.9377786 C30.1986565,38.1883542 26.8381547,38.8336097 24.6783141,39.33672 L24.6783141,39.33672 Z" id="Mask" fill="#FFFFFF"></path>
            <path d="M83.1791321,40.7064135 C81.3991896,41.6955983 79.8561338,41.9601336 76.7701908,42.4892308 C75.8685347,42.6437609 75.0458759,42.7555054 74.2392587,42.8350012 C72.4586054,43.010445 71.0866548,43.0238656 69.5924364,43.0133587 L69.1399719,43.0096269 C67.9842733,42.9990441 66.476108,42.9575429 64.7026569,42.8331798 L64.3175441,44.9227885 L64.3175441,44.9227885 C64.7526572,44.9699959 65.1936661,45.011225 65.6407626,45.0459919 C69.021596,45.3087994 72.1889157,45.1586478 75.0888808,44.7626651 L75.735977,44.6719842 C76.1093545,44.6447765 79.9179925,44.3510551 82.9125075,43.4852696 L83.1471478,43.4157241 C83.4073462,43.3366862 83.7443315,43.227366 84.1527824,43.0508743 C85.7940051,42.3412555 86.8289087,41.3058534 87.5635309,40.5155224 L87.9734446,40.0686666 C88.6296566,39.3401878 89.5007698,38.2777827 90.1840272,36.7217526 L90.3274174,36.3807039 C90.549277,35.8290496 91.3327484,33.7603761 91.1538107,30.992295 C91.0198317,28.9202685 90.4079749,27.4067612 90.1801073,26.8812762 C89.4869241,25.2831955 88.5823705,24.1487433 87.9368854,23.4546881 L88.0520409,23.64979 C88.6836159,24.745451 90.5337079,28.3926946 89.4005323,32.8689779 C88.1101111,37.9661866 83.9249269,40.2918974 83.1791321,40.7064135 Z" id="Mask" fill="#FFFFFF"></path>
            <mask id="mask-2" fill="white">
                <use xlink:href="#path-1"></use>
            </mask>
            <use id="Mask" fill="#FFFFFF" xlink:href="#path-1"></use>
        </g>
    </g>
</svg>