<?xml version="1.0" encoding="UTF-8"?>
<svg width="102px" height="85px" viewBox="0 0 102 85" version="1.1" xmlns="http://www.w3.org/2000/svg" xmlns:xlink="http://www.w3.org/1999/xlink">
    <title>jh_iconic_blue-dark</title>
    <g id="Page-1" stroke="none" stroke-width="1" fill="none" fill-rule="evenodd">
        <g id="jh_iconic_blue-dark" fill-rule="nonzero">
            <g id="JH" transform="translate(0.089953, 0.314005)">
                <path d="M53.8420342,0.164328502 C53.6472319,-0.0100244741 52.6397034,0.822040655 52.2721882,1.10704212 C50.3850642,2.57093044 48.1411827,3.28760923 45.5192315,3.50899691 C38.8675126,4.07057807 33.109872,0.189444046 25.4582254,1.40212088 C20.1806924,2.23853435 16.5667573,5.07482326 15.2084956,6.16695622 C13.2503452,7.74138669 10.0806594,10.289975 8.78584264,14.7947242 C8.39263019,16.1622973 6.72245826,21.9825504 10.4461453,26.2817132 C10.7058188,26.5816772 14.3960335,30.6925084 19.5786403,29.6982463 C22.48516,29.141131 25.618301,27.0245646 26.4662418,23.7240789 C27.4713454,19.8095363 24.7744905,16.3324076 24.5008013,16.409423 C24.3431162,16.4537985 24.8674292,17.7097999 24.1802193,18.5788313 C23.5432269,19.3844094 22.2748626,19.3392444 22.0781533,19.329168 C20.400197,19.2435227 18.9591463,17.7514947 18.4088646,16.4999491 C17.0995519,13.5221578 19.5182846,8.9201886 22.9119398,6.8453977 C27.3521259,4.13083402 33.4656354,5.73966729 36.8958215,8.88896467 C40.2818906,11.997799 40.8902538,16.4440344 41.0852678,20.2576595 C41.3223828,24.8965615 41.1066616,31.672614 40.0556875,38.5291108 C39.8094008,40.1360605 39.6778604,40.938234 39.4538828,41.9803182 C37.8532177,49.4280038 34.889666,54.0820973 32.0175482,58.5927204 C31.5157582,59.3806958 30.7304573,60.5671186 29.3422632,61.7370571 C28.6197759,62.3459497 27.4135578,63.2204088 25.7516379,63.8542858 C22.4993075,65.0949202 19.6180578,64.6070418 18.7593226,64.4338999 C17.8255372,64.245558 14.7703332,63.5192776 12.1718485,60.8238968 C10.7161028,59.3138318 9.9895748,57.7933018 9.67956505,57.0568668 C7.80697554,52.6087374 9.23906237,48.5173251 9.44821272,47.9481769 C11.1657991,43.2746308 15.0961925,41.3353498 15.8777398,40.9690549 C14.2947595,41.4813039 12.1823142,42.36984 10.015362,43.9560431 C8.81191341,44.8369961 7.84416093,45.7481962 7.08183432,46.5726545 C7.08183432,46.5726545 7.06160742,46.5928152 7.04155776,46.6129468 C4.96975499,48.6967594 2.78971068,51.6561858 1.55833426,55.6288618 C-0.808078058,63.2635143 1.38589185,71.2295505 5.81519099,76.520033 C6.99957441,77.9347343 9.82271992,81.1805702 14.6150596,82.6997716 C20.7724714,84.6516278 26.4724037,82.4537492 28.8592003,81.3266945 C28.8592003,81.3266945 29.3578397,81.0941657 29.8110467,80.851642 C33.2957509,78.9871553 42.5566206,69.5795183 46.130515,42.0920226 C46.2752694,40.9786086 46.4107337,39.8355602 46.5360505,38.6621134 C46.603256,38.0332374 46.6677915,37.3965123 46.7290886,36.750077 C46.7290886,36.750077 49.5050206,7.45659192 53.3154466,1.41697697 C53.3904411,1.2980946 54.0254941,0.328544684 53.8420342,0.164328502" id="J-Fill" fill="#2D99FF"></path>
                <path d="M47.7182952,83.8597932 C47.9130414,84.0341373 48.920626,83.2020811 49.2880851,82.9170707 C51.175218,81.4531267 53.4191467,80.7365125 56.041098,80.5151248 C62.6928168,79.9535436 68.4504101,83.834613 76.1020479,82.6219919 C81.3795809,81.7855785 84.993581,78.9492427 86.3517777,77.8571566 C88.3099281,76.2827261 91.4796701,73.7341467 92.7744868,69.2293975 C93.1676993,67.8618244 94.8378712,62.0415713 91.114193,57.7423528 C90.8545195,57.4423888 87.1642398,53.3316045 81.981633,54.3258666 C79.0751694,54.8829907 75.9419723,56.9995482 75.0940316,60.3000339 C74.088984,64.2145854 76.7857828,67.6917052 77.0594721,67.6146898 C77.2172133,67.5703232 76.6929002,66.3143218 77.3800628,65.4452258 C78.0170553,64.6396477 79.2854669,64.6848773 79.4821761,64.6949537 C81.1600763,64.7805902 82.601192,66.2725713 83.1514649,67.5241726 C84.4607775,70.5019639 82.0420448,75.1039331 78.6483985,77.1786683 C74.2082035,79.8932877 68.0946468,78.2843898 64.6645079,75.135157 C61.2783827,72.0263138 60.6700845,67.5800316 60.4750617,63.7664622 C60.2379466,59.1275602 60.4536767,52.351452 61.5046508,45.4949552 C61.7509287,43.8880612 61.8824691,43.0858878 62.1064554,42.0437478 C63.7071117,34.5961179 66.6706161,29.9419598 69.5427251,25.4313924 C70.0445239,24.6433613 70.829816,23.4569942 72.2180101,22.2870557 C72.9404974,21.6781631 74.1467716,20.8037129 75.8087004,20.1697802 C79.0609658,18.9291926 81.9422716,19.4170799 82.8010069,19.5902218 C83.7347361,19.7785548 86.7900051,20.5047884 89.3884248,23.2002161 C90.8442266,24.7102899 91.5707635,26.2307642 91.8807732,26.9671992 C93.7532978,31.4153754 92.3212109,35.5067877 92.1121167,36.0759448 C90.394483,40.7494263 86.4640808,42.688763 85.6825424,43.0550022 C87.26557,42.5428178 89.3779591,41.6542728 91.5449763,40.0680229 C92.748416,39.1871256 93.7161124,38.2759166 94.4784951,37.4514673 C94.4784951,37.4514673 94.498722,37.4313065 94.5187717,37.4111749 C96.5905745,35.3273623 98.7706188,32.3679359 100.001995,28.3952599 C102.368416,20.7605517 100.174381,12.7945624 95.7451385,7.50408874 C94.5606989,6.08937857 91.7376183,2.84349576 86.9452698,1.3243501 C80.7878581,-0.627506067 75.0879345,1.57031678 72.7011292,2.69742725 C72.7011292,2.69742725 72.2024897,2.929956 71.7492916,3.17242397 C68.2645224,5.03695753 59.0037088,14.4446034 55.4297671,41.9320345 C55.2850127,43.0454485 55.1495484,44.1884969 55.0242316,45.3619437 C54.9570261,45.9908197 54.8924818,46.6276005 54.8312496,47.2739889 C54.8312408,47.2740447 52.0553177,76.5674741 48.2448267,82.6071359 C48.1698883,82.7260271 47.5347792,83.6955681 47.7182952,83.8597932" id="H-Fill" fill="#0C0D27"></path>
            </g>
            <path d="M24.6783141,39.33672 L24.4146152,39.3988296 C22.4227388,39.8731077 20.8855667,40.360279 19.8084658,40.7327182 L18.6919313,41.1243932 C18.2649173,41.2797635 17.9429177,41.409559 17.6140644,41.5675433 C15.038458,42.8050509 13.5416747,44.6082742 13.1819271,45.057147 C11.8468056,46.7229435 11.2359965,48.3721853 10.949485,49.3654627 L10.8417391,49.7636304 C10.5879848,50.7680605 10.2741279,52.5482959 10.6073008,54.6720394 C11.240465,58.7084427 13.717092,61.2190877 14.5970867,62.0351741 L14.4629544,61.8557838 C13.7181116,60.8379277 11.416971,57.3215516 12.1034995,52.6210796 C12.7390184,48.2699439 15.5589328,45.4761291 17.4245185,44.1540425 C19.0845692,42.9775198 20.5888584,42.5471787 23.5975404,41.68657 C26.5837944,40.832406 29.0273368,40.5624244 31.1229502,40.341876 C33.6914194,40.0715727 35.8686517,40.0165909 37.4709414,40.0255287 L37.8727215,37.8310496 L37.8727215,37.8310496 L37.0964364,37.8369056 C36.3418899,37.8475836 35.4207359,37.8751334 34.376442,37.9377786 C30.1986565,38.1883542 26.8381547,38.8336097 24.6783141,39.33672 L24.6783141,39.33672 Z" id="Mask" fill="#2D99FF"></path>
            <path d="M78.1310177,23.653681 L77.8673188,23.7157906 C75.8754424,24.1900688 74.3382703,24.6772401 73.2611694,25.0496793 L72.1446349,25.4413542 C71.7176209,25.5967246 71.3956213,25.72652 71.066768,25.8845043 C68.4911616,27.1220119 66.9943784,28.9252352 66.6346307,29.374108 C65.2995092,31.0399045 64.6887001,32.6891464 64.4021886,33.6824237 L64.2944427,34.0805914 C64.0406884,35.0850216 63.7268315,36.8652569 64.0600044,38.9890004 C64.6931687,43.0254037 67.1697956,45.5360487 68.0497903,46.3521351 L67.915658,46.1727448 C67.1708153,45.1548887 64.8696746,41.6385127 65.5562031,36.9380407 C66.191722,32.5869049 69.0116365,29.7930902 70.8772221,28.4710036 C72.5372728,27.2944808 74.041562,26.8641397 77.050244,26.003531 C80.036498,25.149367 82.4800405,24.8793854 84.5756538,24.658837 C87.144123,24.3885338 89.3213553,24.3335519 90.923645,24.3424897 L91.3254251,22.1480106 L91.3254251,22.1480106 L90.54914,22.1538666 C89.7945935,22.1645446 88.8734395,22.1920944 87.8291456,22.2547396 C83.6513601,22.5053152 80.2908583,23.1505707 78.1310177,23.653681 L78.1310177,23.653681 Z" id="Mask" fill="#0C0D27" transform="translate(77.620526, 34.250073) rotate(180.000000) translate(-77.620526, -34.250073) "></path>
            <g id="Mask" transform="translate(48.000000, 39.000000)" fill="#2D99FF">
                <path d="M2.1346596,3.348702 L3.1589012,3.5681719 C3.315871,3.5965346 3.4624401,3.6162704 4.8111728,3.8954491 L5.0815982,1.7607695 L5.0815982,1.7607695 L3.9966984,1.543776 C3.6993925,1.4881141 3.7443179,1.5042511 3.4997513,1.4520295 L3.0531438,1.3534629 C2.2295163,1.1690295 1.8223826,1.1155711 1.0791779,0.9353065 L0.8352024,3.0741182 L0.8352024,3.0741182 L1.1854532,3.1561833 C1.5024135,3.2262234 1.7443309,3.2677407 2.1346596,3.348702 L2.1346596,3.348702 Z" id="path-1"></path>
            </g>
        </g>
    </g>
</svg>