<?xml version="1.0" encoding="UTF-8"?>
<svg width="162px" height="136px" viewBox="0 0 162 136" version="1.1" xmlns="http://www.w3.org/2000/svg" xmlns:xlink="http://www.w3.org/1999/xlink">
    <title>Logos / iconic/ white</title>
    <defs>
        <path d="M80.6086684,68.2222836 L82.2554881,68.575842 C82.5078709,68.6215333 82.7435312,68.653327 84.9120818,69.1030741 L85.3468833,65.6641797 L85.3468833,65.6641797 L83.6025347,65.3146107 C83.1245134,65.2249414 83.1967465,65.2509374 82.8035216,65.1668103 L82.0854468,65.0080229 C80.7611831,64.7109071 80.106576,64.6247875 78.9116193,64.3343876 L78.5193451,67.7799387 L78.5193451,67.7799387 L79.0824933,67.9121426 C79.5921158,68.0249749 79.981081,68.0918577 80.6086684,68.2222836 L80.6086684,68.2222836 Z" id="path-1"></path>
    </defs>
    <g id="💻-Desktop" stroke="none" stroke-width="1" fill="none" fill-rule="evenodd">
        <g id="Desktop/project/branding" transform="translate(-412.000000, -216.000000)">
            <g id="Group" transform="translate(411.000000, 216.000000)">
                <g id="Group-2">
                    <g id="Logos-/-iconic/-blue-grey" transform="translate(0.000000, 0.000000)">
                        <g id="Logo">
                            <g id="JH" transform="translate(0.144631, 0.505850)">
                                <path d="M86.5695453,0.264727491 C86.2563336,-0.0161490786 84.6363859,1.32427886 84.0454791,1.78340628 C81.0112796,4.14167937 77.4034703,5.29622394 73.1877839,5.65287178 C62.4928634,6.55755947 53.2354805,0.305187758 40.932833,2.25876789 C32.4473878,3.60620086 26.6367471,8.17536348 24.4528753,9.93475164 C21.3044765,12.4711043 16.208119,16.5767912 14.1262568,23.8337853 C13.4940329,26.036898 10.8086584,35.4131228 16.795763,42.3389244 C17.2132772,42.8221559 23.1465636,49.4445617 31.4793825,47.8428401 C36.1526102,46.9453469 41.1902095,43.5356322 42.5535652,38.2186646 C44.1696142,31.9124729 39.8334945,26.3109397 39.3934452,26.4350088 C39.1399123,26.5064962 39.9829255,28.5298707 38.8779997,29.92985 C37.8538157,31.2276082 35.8144849,31.154849 35.4982073,31.1386164 C32.8003168,31.0006446 30.4833332,28.5970395 29.5985665,26.5808431 C27.4933972,21.7837251 31.3823399,14.3701131 36.8388051,11.0276972 C43.977928,6.6546297 53.8074922,9.24640404 59.3226935,14.3198124 C64.7669614,19.3280363 65.7451139,26.4907666 66.0586658,32.6343838 C66.4399096,40.1074933 66.0930638,51.0234777 64.4032622,62.0690552 C64.0072718,64.6577952 63.7957755,65.9500687 63.4356548,67.6288301 C60.8620363,79.6267922 56.09711,87.1243746 51.4791952,94.3908314 C50.6723956,95.6602322 49.4097549,97.571518 47.1777565,99.4562482 C46.0161103,100.437153 44.0767008,101.845876 41.4045942,102.86703 C36.1753572,104.865649 31.5427596,104.079694 30.162048,103.800768 C28.6606677,103.497356 23.7483788,102.327343 19.5704231,97.9851787 C17.2298124,95.5525167 16.0616693,93.1029959 15.5632222,91.9166247 C12.552392,84.7508433 14.854963,78.1597206 15.191244,77.2428426 C17.9528535,69.7139226 24.2723095,66.5898086 25.5289149,65.9997202 C22.9837309,66.8249355 19.5872502,68.2563363 16.103131,70.8116541 C14.1681745,72.2308388 12.6121803,73.6987504 11.3864787,75.0269239 C11.3864787,75.0269239 11.353957,75.0594021 11.3217203,75.0918335 C7.99058645,78.4487829 4.48541718,83.2163158 2.50555705,89.6161584 C-1.29926276,101.915318 2.2282967,114.748324 9.34991493,123.271107 C11.2542177,125.550142 15.7933928,130.779071 23.4987233,133.226451 C33.3988756,136.370823 42.5634727,132.830118 46.4010671,131.014472 C46.4010671,131.014472 47.2028011,130.639876 47.9314869,130.249179 C53.5343446,127.245555 68.4243704,112.09018 74.1706319,67.8087821 C74.4033744,66.0151108 74.6211797,64.1736997 74.8226695,62.2833177 C74.9307254,61.2702205 75.0344884,60.2444785 75.1330445,59.2030938 C75.1330445,59.2030938 79.5963076,12.0123098 85.722875,2.28270053 C85.8434544,2.09118518 86.86452,0.52927404 86.5695453,0.264727491" id="J-Fill" fill="#2D99FF"></path>
                                <path d="M76.7235335,135.095205 C77.0366548,135.376068 78.6566928,134.035654 79.2475093,133.576512 C82.281723,131.218149 85.8896084,130.063709 90.1052948,129.707061 C100.800215,128.802373 110.057522,135.054641 122.360155,133.101151 C130.845601,131.753718 136.656346,127.18448 138.840113,125.425167 C141.988512,122.888814 147.08496,118.783142 149.166822,111.526148 C149.799046,109.323035 152.48442,99.9468101 146.49733,93.0209187 C146.079816,92.5376872 140.146425,85.9153569 131.813606,87.5170785 C127.140469,88.414586 122.102779,91.8242864 120.739423,97.141254 C119.123465,103.44746 123.459494,109.048979 123.899543,108.92491 C124.153166,108.853437 123.310153,106.830062 124.415003,105.429979 C125.439187,104.132221 127.478594,104.205084 127.794871,104.221317 C130.492672,104.359274 132.80976,106.762804 133.694512,108.77909 C135.799682,113.576208 131.910739,120.98982 126.454288,124.332146 C119.315151,128.705303 109.48551,126.113425 103.970385,121.040121 C98.5260271,116.031882 97.547979,108.869077 97.2344129,102.725549 C96.8531691,95.2524396 97.2000291,84.3363654 98.8898307,73.290788 C99.2858069,70.7021377 99.4973032,69.4098642 99.8574381,67.7310131 C102.431042,55.7331407 107.195893,48.2354542 111.813793,40.9690872 C112.620607,39.6995966 113.883234,37.7884006 116.115232,35.9036704 C117.276878,34.9227655 119.216378,33.5140567 121.888499,32.4928133 C127.117631,30.4942698 131.750319,31.2802393 133.131031,31.5591648 C134.632321,31.8625628 139.544714,33.0324998 143.722565,37.3747399 C146.063266,39.8074162 147.231424,42.2568473 147.729871,43.4432184 C150.740596,50.6090753 148.438025,57.200198 148.101835,58.1170903 C145.340149,65.6459062 139.020679,68.77011 137.764088,69.3601086 C140.309348,68.5349974 143.705738,67.1035823 147.189962,64.548189 C149.124904,63.1290941 150.680808,61.6611682 151.9066,60.333009 C151.9066,60.333009 151.939122,60.3005308 151.971358,60.2680994 C155.302492,56.91115 158.807662,52.1436171 160.787522,45.7437745 C164.592356,33.4445255 161.064692,20.6115942 153.943164,12.0888255 C152.038771,9.80977674 147.4997,4.58077261 139.794355,2.13348188 C129.894203,-1.01089041 120.72962,2.52972563 116.892012,4.34546133 C116.892012,4.34546133 116.090278,4.72005705 115.361606,5.11066449 C109.758644,8.11436311 94.8687083,23.2697529 89.1223707,67.5510467 C88.8896283,69.344718 88.671823,71.1861291 88.4703332,73.0765111 C88.3622773,74.0896083 88.2585001,75.1154401 88.1600484,76.1567493 C88.1600342,76.1568391 83.6967853,123.347533 77.5701135,133.077218 C77.4496244,133.268748 76.4284685,134.830645 76.7235335,135.095205" id="H-Fill" fill="#E5E5E5"></path>
                            </g>
                            <path d="M39.6788579,63.3700855 L39.2548715,63.4701419 C36.0522467,64.2341875 33.5807151,65.0190035 31.8489058,65.6189901 L30.0536935,66.2499648 C29.367122,66.500261 28.8493971,66.7093569 28.3206526,66.9638642 C24.1794815,68.9574458 21.7728888,71.8623757 21.1944711,72.5854942 C19.0478051,75.2690343 18.0657199,77.9259054 17.6050543,79.5260406 L17.4318158,80.1674749 C17.0238187,81.7855769 16.5191861,84.6534741 17.0548758,88.0747508 C18.0729046,94.577256 22.0549322,98.6218175 23.4698257,99.9365043 L23.254162,99.6475127 C22.0565717,98.0077821 18.3566985,92.3430227 19.4605286,84.7707261 C20.4823432,77.761198 25.0163234,73.2604598 28.0158924,71.1306243 C30.6849935,69.2352872 33.1036547,68.5420226 37.9411434,67.155612 C42.7425714,65.7795835 46.6714043,65.3446526 50.0408218,64.9893569 C54.1705175,64.5539077 57.6711654,64.4653339 60.2473959,64.4797323 L60.8933953,60.9445029 L60.8933953,60.9445029 L59.6452507,60.9539367 C58.4320582,60.9711386 56.9509871,61.0155205 55.2719264,61.1164397 C48.5547026,61.5201082 43.1515428,62.5595924 39.6788579,63.3700855 L39.6788579,63.3700855 Z" id="Mask" fill="#2D99FF"></path>
                            <path d="M125.622422,38.1052566 L125.198435,38.205313 C121.995811,38.9693585 119.524279,39.7541746 117.79247,40.3541611 L115.997257,40.9851359 C115.310686,41.235432 114.792961,41.4445279 114.264217,41.6990352 C110.123045,43.6926169 107.716453,46.5975467 107.138035,47.3206652 C104.991369,50.0042053 104.009284,52.6610765 103.548618,54.2612116 L103.37538,54.902646 C102.967383,56.520748 102.46275,59.3886451 102.99844,62.8099219 C104.016469,69.312427 107.998496,73.3569886 109.41339,74.6716754 L109.197726,74.3826838 C108.000136,72.7429531 104.300262,67.0781938 105.404093,59.5058972 C106.425907,52.496369 110.959887,47.9956308 113.959456,45.8657954 C116.628558,43.9704582 119.047219,43.2771937 123.884707,41.890783 C128.686135,40.5147546 132.614968,40.0798237 135.984386,39.7245279 C140.114081,39.2890788 143.614729,39.200505 146.19096,39.2149034 L146.836959,35.679674 L146.836959,35.679674 L145.588815,35.6891078 C144.375622,35.7063097 142.894551,35.7506915 141.21549,35.8516108 C134.498267,36.2552792 129.095107,37.2947634 125.622422,38.1052566 L125.622422,38.1052566 Z" id="Mask" fill="#E5E5E5" transform="translate(124.801631, 55.175675) scale(-1, -1) translate(-124.801631, -55.175675) "></path>
                            <path d="M133.738997,65.5766141 C130.877128,67.1701564 128.396137,67.5963135 123.434424,68.4486707 C121.984703,68.6976132 120.661997,68.8776297 119.365083,69.0056946 C116.502071,69.2883285 114.29619,69.3099487 111.893721,69.2930224 L111.166229,69.2870105 C109.308047,69.2699621 106.883154,69.2031051 104.031723,69.0027604 L103.412522,72.3690473 L103.412522,72.3690473 C104.112115,72.4450968 104.821189,72.5115154 105.54005,72.5675237 C110.975899,72.9908974 116.068453,72.7490084 120.731142,72.1110941 L121.771571,71.9650103 C122.371903,71.9211796 128.495596,71.4480046 133.310306,70.0532545 L133.687571,69.941219 C134.105929,69.8138918 134.647749,69.6377807 135.304474,69.3534587 C137.943302,68.2102875 139.607265,66.5422909 140.788422,65.2690952 L141.447499,64.5492261 C142.502585,63.3756721 143.903198,61.6641745 145.001769,59.1574642 L145.232318,58.6080466 C145.589034,57.7193508 146.848733,54.3867897 146.561029,49.9275076 C146.345612,46.5895451 145.361842,44.1513375 144.995467,43.3047994 C143.880937,40.7303471 142.426556,38.9027841 141.388718,37.7846854 L141.57387,38.0989878 C142.589343,39.8640596 145.564001,45.7396419 143.742032,52.9507783 C141.667237,61.162204 134.938118,64.9088431 133.738997,65.5766141 Z" id="Mask" fill="#E5E5E5"></path>
                            <mask id="mask-2" fill="white">
                                <use xlink:href="#path-1"></use>
                            </mask>
                            <use id="Mask" fill="#2D99FF" xlink:href="#path-1"></use>
                        </g>
                    </g>
                </g>
            </g>
        </g>
    </g>
</svg>