<?xml version="1.0" encoding="UTF-8"?>
<svg width="148px" height="126px" viewBox="0 0 148 126" version="1.1" xmlns="http://www.w3.org/2000/svg" xmlns:xlink="http://www.w3.org/1999/xlink">
    <title>jh_logo_blue-white</title>
    <g id="Page-1" stroke="none" stroke-width="1" fill="none" fill-rule="evenodd">
        <g id="jh_logo_blue-white" fill-rule="nonzero">
            <path d="M16.8,65.8 L16.8,65.8 C15.6,66.5 12.8,68.3 10,71.5 C10.2,71.1 13.1,68.1 16.8,65.8 Z" id="Path" fill="#E4E4E4"></path>
            <path d="M144,46.2 L144,46.2 C143.9,46.2 143.9,46.2 144,46.2 C143.9,46.2 143.9,46.2 144,46.2 Z" id="Path" fill="#E4E4E4"></path>
            <path d="M131.3,60.3 L131.4,60.2 C131.4,60.3 131.4,60.3 131.3,60.3 L131.3,60.3 Z" id="Path" fill="#E4E4E4"></path>
            <path d="M136.4,56.4 C136.1,56.8 133.9,58.7 131.5,60.3 C132.4,59.6 134.2,58.3 136.4,56.4 Z" id="Path" fill="#E4E4E4"></path>
            <path d="M136.5,56.3 C139,54 141.9,50.7 144,46.3 C142.7,48.8 140.3,52.6 136.5,56.3 Z" id="Path" fill="#E4E4E4"></path>
            <path d="M77.1,0.7 C76.8,0.5 75.4,1.7 74.8,2.1 C72.1,4.4 68.8,5.5 64.9,5.9 C55.2,7 46.5,1.5 35.2,3.6 C27.4,5.1 22.2,9.4 20.3,11.1 C17.5,13.5 12.9,17.4 11.1,24.1 C10.5,26.1 8.4,34.8 14,41 C14.3,41.4 20,47.3 27.6,45.7 C31.9,44.7 36.4,41.5 37.5,36.5 C38.9,30.6 34.7,25.6 34.4,25.7 C34.2,25.8 35,27.6 34,29 C33.1,30.2 31.2,30.2 30.9,30.2 C28.4,30.2 26.3,28 25.4,26.1 C23.4,21.7 26.8,14.8 31.6,11.6 C38,7.4 47.1,9.5 52.3,14 C57.4,18.5 58.5,25 58.9,30.7 C59.4,37.5 59.4,47.6 58.1,57.8 C57.9,59.5 57.6,61.3 57.3,62.9 C54.6,78.7 48.7,93.5 37.3,96.4 C30.4,98.1 21.3,95.3 16.4,89.4 C16.1,89.1 15.8,88.6 15.5,88.3 C12.7,84.1 11.8,78.3 13,72.9 C13.9,69.5 15.4,67 16.5,65.5 C12.9,67.8 10.1,70.8 9.7,71.2 C9.7,71.2 9.7,71.2 9.7,71.3 C6.8,74.4 3.6,79 2,84.9 C-1.2,96.3 2.3,108 9,115.7 C10.7,117.7 15.1,122.5 22.2,124.5 C31.3,127.1 39.7,123.7 43.1,121.9 C43.1,121.9 43.9,121.5 44.5,121.2 C49.5,118.3 62.8,103.9 67.1,63.1 C67.3,61.4 67.4,59.7 67.6,58 C67.7,57.1 67.7,56.1 67.8,55.2 C67.8,55.2 70.8,11.6 76.1,2.5 C76.4,2.4 77.3,0.9 77.1,0.7 Z" id="Path" fill="#5B9CD4"></path>
            <path d="M138.9,10.2 C137.2,8.2 132.8,3.4 125.7,1.4 C116.6,-1.2 108.2,2.2 104.8,4 C104.8,4 104,4.4 103.4,4.7 C98.5,7.5 86.2,20.8 81.4,58 C81.2,59.7 81,61.4 80.8,63.2 C80.6,65.7 80.3,68.2 80.2,70.9 C80.2,70.9 77.2,114.5 71.9,123.6 C71.8,123.8 70.9,125.3 71.1,125.5 C71.3,125.7 72.8,124.5 73.4,124.1 C76.1,121.8 79.4,120.7 83.3,120.3 C93,119.2 101.7,124.7 113,122.6 C120.8,121.1 126,116.8 127.9,115.1 C130.7,112.7 135.3,108.8 137.1,102.1 C137.7,100.1 139.8,91.4 134.2,85.2 C133.9,84.8 128.2,78.9 120.6,80.5 C116.3,81.5 111.8,84.7 110.7,89.7 C109.3,95.6 113.5,100.6 113.8,100.5 C114,100.4 113.2,98.6 114.2,97.2 C115.1,96 117,96 117.3,96 C119.8,96 121.9,98.2 122.8,100.1 C124.8,104.5 121.4,111.4 116.6,114.6 C110.2,118.8 101.1,116.7 95.9,112.2 C90.8,107.7 89.7,101.2 89.3,95.5 C88.5,87.3 88.6,75.2 90.6,63.6 C90.9,61.8 91.3,60.2 91.6,58.4 C94.5,44.5 100.4,32 110.7,29.6 C118.1,27.8 127.9,31.1 132.3,37.8 C133,39 133.8,40.3 134.2,41.7 C135.5,45.2 135.6,49.3 134.8,53.2 C133.9,56.6 132.4,59.1 131.3,60.6 L131.4,60.5 L131.4,60.5 C133.8,58.9 136,57 136.3,56.6 C136.3,56.6 136.3,56.5 136.4,56.5 C140.3,52.9 142.6,49 143.9,46.5 L143.9,46.5 C144.6,44.9 145.3,43.2 145.9,41.3 C149.1,29.5 145.6,17.9 138.9,10.2 Z" id="Path" fill="#E42337"></path>
            <g id="Group" transform="translate(14.000000, 40.000000)" fill="#5B9CD4">
                <path d="M41.6,18 C32.8,18.4 13.5,19.9 4.9,25.4 C4.8,25.4 4.8,25.5 4.7,25.5 C3.6,27 2.1,29.5 1.2,32.9 C-0.1,38.3 0.9,44.2 3.7,48.3 C3.9,48.7 4.2,49.1 4.6,49.4 C3.6,47.9 1.1,43.4 2,38.1 C2.8,33.5 5.8,30.5 6.9,29.4 C14.1,22.5 25.8,22.7 41.5,23.1 C41.9,23.1 42.2,21.6 42.2,20.3 C42.2,18.7 41.9,17.9 41.6,18 Z" id="Path"></path>
                <path d="M64.5,18.1 C62.6,18.1 60.6,18.1 58.2,18.1 C57.8,18 57.5,19.2 57.6,20.6 C57.6,21.9 57.9,23 58.2,23.2 C60.1,23.2 62.2,23.2 64.6,23.2 C64.9,22.9 65.1,22 65.1,20.6 C65.2,19.2 64.9,18 64.5,18.1 Z" id="Path"></path>
                <path d="M118.5,0.6 C118.9,1.9 119.1,3.4 119,5.1 C118.7,9.9 115.2,13.1 114,14.2 C107.5,20.3 95.9,18.4 80.2,17.4 C79.8,17.3 79.4,18.3 79.3,19.7 C79.2,21.1 79.4,22.5 79.7,22.5 C93,23 107.7,24.2 115.4,19.3 C116.5,17.8 118,15.3 118.9,11.9 C120,8.2 119.8,4.1 118.5,0.6 Z" id="Path"></path>
            </g>
        </g>
    </g>
</svg>