<?xml version="1.0" encoding="utf-8"?>
<!-- Generator: Adobe Illustrator 24.0.3, SVG Export Plug-In . SVG Version: 6.00 Build 0)  -->
<svg version="1.1" id="Layer_1" xmlns="http://www.w3.org/2000/svg" xmlns:xlink="http://www.w3.org/1999/xlink" x="0px" y="0px"
	 viewBox="0 0 150 150" style="enable-background:new 0 0 150 150;" xml:space="preserve">
<style type="text/css">
	.st0{fill:#E4E4E4;}
	.st1{fill:#5B9CD4;}
	.st2{fill:#091927;}
	.st3{fill:url(#SVGID_1_);}
	.st4{fill:url(#SVGID_2_);}
	.st5{fill:url(#SVGID_3_);}
</style>
<g>
	<polygon class="st0" points="131.5,64.7 131.5,64.7 131.5,64.7 	"/>
	<path class="st0" d="M136,60.2C136,60.2,136,60.2,136,60.2C136,60.2,136,60.2,136,60.2C136,60.2,136,60.2,136,60.2z"/>
	<path class="st0" d="M18.6,85.2C18.6,85.2,18.6,85.2,18.6,85.2c-1.1,0.9-3.6,3-6,6.5C12.8,91.3,15.3,88,18.6,85.2z"/>
	<path class="st0" d="M12.5,91.7C12.5,91.7,12.5,91.7,12.5,91.7C12.5,91.7,12.5,91.7,12.5,91.7C12.5,91.7,12.5,91.7,12.5,91.7
		C12.5,91.7,12.5,91.7,12.5,91.7C12.5,91.7,12.5,91.7,12.5,91.7z"/>
	<path class="st0" d="M142.2,49.2C142.2,49.2,142.2,49.2,142.2,49.2C142.1,49.2,142.1,49.2,142.2,49.2
		C142.1,49.2,142.1,49.2,142.2,49.2z"/>
	<path class="st0" d="M131.4,64.8c0,0,0.1-0.1,0.1-0.1C131.5,64.8,131.5,64.8,131.4,64.8C131.4,64.8,131.4,64.8,131.4,64.8z"/>
	<path class="st0" d="M136,60.3c-0.3,0.4-2.2,2.6-4.4,4.5C132.4,64,134.1,62.5,136,60.3z"/>
	<path class="st0" d="M136.1,60.2c2.2-2.6,4.6-6.3,6.1-10.9C141.2,51.9,139.4,56,136.1,60.2z"/>
	<path class="st1" d="M69.9,12.8c-0.3-0.2-1.6,1.2-2.1,1.7c-2.4,2.6-5.5,4.2-9.3,5.1c-9.5,2.4-18.8-2-29.7,1.6
		c-7.5,2.5-12.1,7.4-13.8,9.4c-2.5,2.8-6.5,7.2-7.4,14.1c-0.3,2.1-1.3,11,5.1,16.4c0.4,0.4,6.8,5.5,14.1,2.9
		c4.1-1.5,8.2-5.3,8.6-10.4c0.6-6-4.2-10.4-4.5-10.3c-0.2,0.1,0.8,1.8,0,3.3c-0.7,1.3-2.6,1.6-2.9,1.6c-2.5,0.3-4.9-1.6-6-3.3
		c-2.6-4.1-0.1-11.4,4.3-15.2c5.8-5,15.1-4.1,20.8-0.3c5.6,3.8,7.6,10.1,8.7,15.7c1.4,6.7,2.7,16.7,2.7,27c0,1.7,0,3.5-0.1,5.2
		c-0.6,16-4.5,31.5-15.5,35.8c-6.6,2.6-16,1-21.6-4.2c-0.3-0.3-0.7-0.7-1-1c-3.3-3.8-5-9.4-4.5-14.9c0.4-3.5,1.6-6.2,2.5-7.8
		c-3.3,2.8-5.7,6.1-6,6.5c0,0,0,0,0,0.1c-2.5,3.5-5,8.4-5.9,14.5c-1.7,11.7,3.3,22.9,11,29.6c2,1.8,6.9,5.9,14.2,7
		c9.4,1.4,17.2-3.1,20.4-5.3c0,0,0.7-0.5,1.3-0.9c4.6-3.5,15.9-19.5,14.8-60.6c0-1.7-0.1-3.4-0.2-5.1c0-0.9-0.1-1.9-0.2-2.8
		c0,0-2.7-43.6,1.4-53.3C69.5,14.6,70.2,13,69.9,12.8z"/>
	<path class="st2" d="M132.4,14.2c-2-1.8-6.9-5.9-14.2-7c-9.4-1.4-17.2,3.1-20.4,5.3c0,0-0.7,0.5-1.3,0.9
		c-4.5,3.4-15,18.2-14.9,55.7c0,1.7,0,3.4,0.1,5.2c0.1,2.5,0.2,5,0.4,7.7c0,0,2.7,43.6-1.4,53.3c-0.1,0.2-0.8,1.8-0.5,2
		c0.3,0.2,1.6-1.2,2.1-1.7c2.4-2.6,5.5-4.2,9.3-5.1c9.5-2.4,18.8,2,29.7-1.6c7.5-2.5,12.1-7.4,13.8-9.4c2.5-2.8,6.5-7.2,7.4-14.1
		c0.3-2.1,1.3-11-5.1-16.4c-0.4-0.4-6.8-5.5-14.1-2.9c-4.1,1.5-8.2,5.3-8.6,10.4c-0.6,6,4.2,10.4,4.5,10.3c0.2-0.1-0.8-1.8,0-3.3
		c0.7-1.3,2.6-1.6,2.9-1.6c2.5-0.3,4.9,1.6,6,3.3c2.6,4.1,0.1,11.4-4.3,15.2c-5.8,5-15.1,4.1-20.8,0.3c-5.6-3.8-7.6-10.1-8.7-15.7
		C92.4,97,91,85,91.4,73.2c0.1-1.8,0.2-3.5,0.3-5.3c1.1-14.2,5.3-27.3,15.2-31.1c7.1-2.7,17.2-0.8,22.5,5.3c0.9,1.1,1.8,2.3,2.4,3.6
		c1.7,3.3,2.4,7.4,2.1,11.3c-0.4,3.5-1.6,6.2-2.5,7.8c0,0,0.1-0.1,0.1-0.1c0,0,0,0,0,0c2.2-1.9,4.1-4.1,4.4-4.5c0,0,0-0.1,0.1-0.1
		c3.4-4.1,5.2-8.2,6.1-10.9c0,0,0,0,0,0c0.5-1.7,1-3.5,1.3-5.4C145.1,32,140.1,20.9,132.4,14.2z"/>
	<g>
		
			<linearGradient id="SVGID_1_" gradientUnits="userSpaceOnUse" x1="255.5664" y1="91.7098" x2="140.8763" y2="94.3688" gradientTransform="matrix(0.9914 -0.1305 0.1305 0.9914 -134.453 18.644)">
			<stop  offset="0" style="stop-color:#0C1928"/>
			<stop  offset="1" style="stop-color:#5C9CD4"/>
		</linearGradient>
		<path class="st3" d="M56.1,72.4c-8.7,1.5-27.6,5.5-35.4,12.1c-0.1,0-0.1,0.1-0.2,0.1c-0.9,1.6-2.1,4.3-2.5,7.8
			c-0.6,5.5,1.2,11.2,4.5,14.9c0.3,0.4,0.6,0.7,1,1c-1.2-1.4-4.3-5.5-4.1-10.9c0.2-4.7,2.8-8,3.7-9.3C29.3,80.3,41,79,56.6,77.3
			c0.4-0.1,0.5-1.6,0.3-2.9C56.8,73,56.4,72.3,56.1,72.4z"/>
		
			<linearGradient id="SVGID_2_" gradientUnits="userSpaceOnUse" x1="253.2688" y1="79.5986" x2="138.5787" y2="82.2575" gradientTransform="matrix(0.9914 -0.1305 0.1305 0.9914 -134.453 18.644)">
			<stop  offset="0" style="stop-color:#0C1928"/>
			<stop  offset="1" style="stop-color:#5C9CD4"/>
		</linearGradient>
		<path class="st4" d="M78.8,69.5c-1.9,0.2-3.9,0.5-6.2,0.8c-0.4,0-0.5,1.2-0.3,2.6c0.2,1.3,0.6,2.3,0.9,2.5c1.9-0.3,4-0.5,6.3-0.8
			c0.3-0.3,0.3-1.3,0.2-2.6C79.6,70.5,79.2,69.4,78.8,69.5z"/>
		
			<linearGradient id="SVGID_3_" gradientUnits="userSpaceOnUse" x1="251.4371" y1="71.9665" x2="136.747" y2="74.6255" gradientTransform="matrix(0.9914 -0.1305 0.1305 0.9914 -134.453 18.644)">
			<stop  offset="0" style="stop-color:#0C1928"/>
			<stop  offset="1" style="stop-color:#5C9CD4"/>
		</linearGradient>
		<path class="st5" d="M130.1,45.1c0.6,1.2,1,2.7,1.1,4.4c0.3,4.8-2.7,8.4-3.8,9.7c-5.6,6.9-17.4,6.5-33.1,7.6c-0.4,0-0.7,1-0.6,2.4
			c0.1,1.4,0.5,2.8,0.8,2.7c13.3-1.2,28-2,35-7.8c0.9-1.6,2.1-4.3,2.5-7.8C132.5,52.5,131.8,48.4,130.1,45.1z"/>
	</g>
</g>
</svg>
