<?xml version="1.0" encoding="utf-8"?>
<!-- Generator: Adobe Illustrator 24.1.0, SVG Export Plug-In . SVG Version: 6.00 Build 0)  -->
<svg version="1.1" id="Layer_1" xmlns="http://www.w3.org/2000/svg" xmlns:xlink="http://www.w3.org/1999/xlink" x="0px" y="0px"
	 viewBox="0 0 150 150" style="enable-background:new 0 0 150 150;" xml:space="preserve">
<style type="text/css">
	.st0{fill:#E4E4E4;}
	.st1{fill:#5B9CD4;}
	.st2{fill:#091927;}
	.st3{fill:url(#SVGID_1_);}
	.st4{fill:url(#SVGID_2_);}
	.st5{fill:url(#SVGID_3_);}
</style>
<g>
	<path class="st0" d="M132.4,72.2L132.4,72.2L132.4,72.2z"/>
	<path class="st0" d="M137.4,68.3L137.4,68.3L137.4,68.3L137.4,68.3z"/>
	<path class="st0" d="M17.8,77.8L17.8,77.8c-1.2,0.7-4,2.5-6.8,5.7C11.2,83.1,14.1,80.1,17.8,77.8z"/>
	<path class="st0" d="M10.9,83.4L10.9,83.4L10.9,83.4L10.9,83.4L10.9,83.4L10.9,83.4z"/>
	<path class="st0" d="M145,58.2L145,58.2C144.9,58.2,144.9,58.2,145,58.2C144.9,58.2,144.9,58.2,145,58.2z"/>
	<path class="st0" d="M132.3,72.3l0.1-0.1C132.4,72.3,132.4,72.3,132.3,72.3L132.3,72.3z"/>
	<path class="st0" d="M137.4,68.4c-0.3,0.4-2.5,2.3-4.9,3.9C133.4,71.6,135.2,70.3,137.4,68.4z"/>
	<path class="st0" d="M137.5,68.3c2.5-2.3,5.4-5.6,7.5-10C143.7,60.8,141.3,64.6,137.5,68.3z"/>
	<path class="st1" d="M78.1,12.7c-0.3-0.2-1.7,1-2.3,1.4c-2.7,2.3-6,3.4-9.9,3.8c-9.7,1.1-18.4-4.4-29.7-2.3
		c-7.8,1.5-13,5.8-14.9,7.5c-2.8,2.4-7.4,6.3-9.2,13c-0.6,2-2.7,10.7,2.9,16.9c0.3,0.4,6,6.3,13.6,4.7c4.3-1,8.8-4.2,9.9-9.2
		c1.4-5.9-2.8-10.9-3.1-10.8c-0.2,0.1,0.6,1.9-0.4,3.3c-0.9,1.2-2.8,1.2-3.1,1.2c-2.5,0-4.6-2.2-5.5-4.1c-2-4.4,1.4-11.3,6.2-14.5
		c6.4-4.2,15.5-2.1,20.7,2.4c5.1,4.5,6.2,11,6.6,16.7c0.5,6.8,0.5,16.9-0.8,27.1c-0.2,1.7-0.5,3.5-0.8,5.1
		c-2.7,15.8-8.6,30.6-20,33.5c-6.9,1.7-16-1.1-20.9-7c-0.3-0.3-0.6-0.8-0.9-1.1c-2.8-4.2-3.7-10-2.5-15.4c0.9-3.4,2.4-5.9,3.5-7.4
		c-3.6,2.3-6.4,5.3-6.8,5.7c0,0,0,0,0,0.1c-2.9,3.1-6.1,7.7-7.7,13.6c-3.2,11.4,0.3,23.1,7,30.8c1.7,2,6.1,6.8,13.2,8.8
		c9.1,2.6,17.5-0.8,20.9-2.6c0,0,0.8-0.4,1.4-0.7c5-2.9,18.3-17.3,22.6-58.1c0.2-1.7,0.3-3.4,0.5-5.1c0.1-0.9,0.1-1.9,0.2-2.8
		c0,0,3-43.6,8.3-52.7C77.4,14.4,78.3,12.9,78.1,12.7z"/>
	<path class="st2" d="M139.9,22.2c-1.7-2-6.1-6.8-13.2-8.8c-9.1-2.6-17.5,0.8-20.9,2.6c0,0-0.8,0.4-1.4,0.7
		c-4.9,2.8-17.2,16.1-22,53.3c-0.2,1.7-0.4,3.4-0.6,5.2c-0.2,2.5-0.5,5-0.6,7.7c0,0-3,43.6-8.3,52.7c-0.1,0.2-1,1.7-0.8,1.9
		s1.7-1,2.3-1.4c2.7-2.3,6-3.4,9.9-3.8c9.7-1.1,18.4,4.4,29.7,2.3c7.8-1.5,13-5.8,14.9-7.5c2.8-2.4,7.4-6.3,9.2-13
		c0.6-2,2.7-10.7-2.9-16.9c-0.3-0.4-6-6.3-13.6-4.7c-4.3,1-8.8,4.2-9.9,9.2c-1.4,5.9,2.8,10.9,3.1,10.8c0.2-0.1-0.6-1.9,0.4-3.3
		c0.9-1.2,2.8-1.2,3.1-1.2c2.5,0,4.6,2.2,5.5,4.1c2,4.4-1.4,11.3-6.2,14.5c-6.4,4.2-15.5,2.1-20.7-2.4c-5.1-4.5-6.2-11-6.6-16.7
		c-0.8-8.2-0.7-20.3,1.3-31.9c0.3-1.8,0.7-3.4,1-5.2c2.9-13.9,8.8-26.4,19.1-28.8c7.4-1.8,17.2,1.5,21.6,8.2
		c0.7,1.2,1.5,2.5,1.9,3.9c1.3,3.5,1.4,7.6,0.6,11.5c-0.9,3.4-2.4,5.9-3.5,7.4l0.1-0.1l0,0c2.4-1.6,4.6-3.5,4.9-3.9
		c0,0,0-0.1,0.1-0.1c3.9-3.6,6.2-7.5,7.5-10l0,0c0.7-1.6,1.4-3.3,2-5.2C150.1,41.5,146.6,29.9,139.9,22.2z"/>
	<g>
		
			<linearGradient id="SVGID_1_" gradientUnits="userSpaceOnUse" x1="199.3168" y1="33.8197" x2="84.6267" y2="31.1607" gradientTransform="matrix(1 2.010934e-05 2.010934e-05 -1 -69.0554 117.3158)">
			<stop  offset="0" style="stop-color:#0C1928"/>
			<stop  offset="1" style="stop-color:#5C9CD4"/>
		</linearGradient>
		<path class="st3" d="M56.6,70c-8.8,0.4-28.1,1.9-36.7,7.4c-0.1,0-0.1,0.1-0.2,0.1c-1.1,1.5-2.6,4-3.5,7.4
			c-1.3,5.4-0.3,11.3,2.5,15.4c0.2,0.4,0.5,0.8,0.9,1.1c-1-1.5-3.5-6-2.6-11.3c0.8-4.6,3.8-7.6,4.9-8.7c7.2-6.9,18.9-6.7,34.6-6.3
			c0.4,0,0.7-1.5,0.7-2.8C57.2,70.7,56.9,69.9,56.6,70z"/>
		
			<linearGradient id="SVGID_2_" gradientUnits="userSpaceOnUse" x1="197.0201" y1="45.8955" x2="82.33" y2="43.2366" gradientTransform="matrix(1 2.010934e-05 2.010934e-05 -1 -69.0554 117.3158)">
			<stop  offset="0" style="stop-color:#0C1928"/>
			<stop  offset="1" style="stop-color:#5C9CD4"/>
		</linearGradient>
		<path class="st4" d="M79.5,70.1c-1.9,0-3.9,0-6.3,0c-0.4-0.1-0.7,1.1-0.6,2.5c0,1.3,0.3,2.4,0.6,2.6c1.9,0,4,0,6.4,0
			c0.3-0.3,0.5-1.2,0.5-2.6C80.2,71.2,79.9,70,79.5,70.1z"/>
		
			<linearGradient id="SVGID_3_" gradientUnits="userSpaceOnUse" x1="195.1862" y1="53.6205" x2="80.4961" y2="50.9615" gradientTransform="matrix(1 2.010934e-05 2.010934e-05 -1 -69.0554 117.3158)">
			<stop  offset="0" style="stop-color:#0C1928"/>
			<stop  offset="1" style="stop-color:#5C9CD4"/>
		</linearGradient>
		<path class="st5" d="M133.5,52.6c0.4,1.3,0.6,2.8,0.5,4.5c-0.3,4.8-3.8,8-5,9.1c-6.5,6.1-18.1,4.2-33.8,3.2
			c-0.4-0.1-0.8,0.9-0.9,2.3c-0.1,1.4,0.1,2.8,0.4,2.8c13.3,0.5,28,1.7,35.7-3.2c1.1-1.5,2.6-4,3.5-7.4
			C135,60.2,134.8,56.1,133.5,52.6z"/>
	</g>
</g>
</svg>
