<?xml version="1.0" encoding="UTF-8"?>
<svg width="31px" height="31px" viewBox="0 0 31 31" version="1.1" xmlns="http://www.w3.org/2000/svg" xmlns:xlink="http://www.w3.org/1999/xlink">
    <title>linkedin</title>
    <g id="Symbols" stroke="none" stroke-width="1" fill="none" fill-rule="evenodd">
        <g id="Icons-/-linkedin" fill="#FFFFFF" fill-rule="nonzero">
            <g id="linkedin">
                <path d="M30.4922636,31 L30.4922636,30.9987215 L30.5,30.9987215 L30.5,19.745708 C30.5,14.2406551 29.3047192,10 22.8138418,10 C19.6934756,10 17.5994778,11.6977962 16.7446006,13.3073785 L16.6543421,13.3073785 L16.6543421,10.5139413 L10.5,10.5139413 L10.5,30.9987215 L16.9083554,30.9987215 L16.9083554,20.8554122 C16.9083554,18.1847072 17.4189607,15.602216 20.754658,15.602216 C24.0413577,15.602216 24.0903552,18.650067 24.0903552,21.0267259 L24.0903552,31 L30.4922636,31 Z" id="Path"></path>
                <polygon id="Path" points="0.5 10 6.5 10 6.5 31 0.5 31"></polygon>
                <path d="M4,0 C2.06783484,0 0.5,1.56052495 0.5,3.48368157 C0.5,5.4068382 2.06783484,7 4,7 C5.93216516,7 7.5,5.4068382 7.5,3.48368157 C7.49878557,1.56052495 5.93095073,0 4,0 Z" id="Path"></path>
            </g>
        </g>
    </g>
</svg>