<?xml version="1.0" encoding="UTF-8"?>
<svg width="140px" height="189px" viewBox="0 0 140 189" version="1.1" xmlns="http://www.w3.org/2000/svg" xmlns:xlink="http://www.w3.org/1999/xlink">
    <title>pumello_iconic_white</title>
    <g id="Page-1" stroke="none" stroke-width="1" fill="none" fill-rule="evenodd">
        <g id="pumello_iconic_white" fill="#FFFFFF" fill-rule="nonzero">
            <path d="M70,45.9883721 C100.214818,45.9883721 140,92.1036438 140,121.554481 C140,160.184446 108.659932,188.430233 70,188.430233 C31.3400675,188.430233 0,160.184512 0,121.554481 C0,92.1036438 39.7851817,45.9883721 70,45.9883721 Z M70.1017442,50.2616279 C41.6875184,50.2616279 4.27325581,93.6099834 4.27325581,121.29377 C4.27325581,157.605999 33.7456739,184.156977 70.1017442,184.156977 C106.457815,184.156977 135.930233,157.605937 135.930233,121.29377 C135.930233,93.6099834 98.51597,50.2616279 70.1017442,50.2616279 Z" id="Combined-Shape"></path>
            <path d="M17.0930233,119.243125 C17.0930233,99.5751807 28.0503046,86.8895349 36.9254658,86.8895349 C44.9930862,86.8895349 41.6133721,112.004844 68.880814,116.076358 C96.1482558,120.147873 120.282999,106.747188 119.78488,101.344786 C120.762518,103.535641 123.110465,110.45653 123.110465,119.243125 C123.109151,138.911212 108.880564,172.965116 70.1017442,172.965116 C31.3229248,172.965116 17.0930233,138.91107 17.0930233,119.243125 Z" id="fruit"></path>
            <g id="A09" transform="translate(39.784012, 0.000000)">
                <path d="M30.3197674,42.1883899 C33.8086812,24.4643669 39.9617783,12.9007679 48.7790586,7.49759317 C57.596339,2.0944184 72.0633969,1.02211403 92.1802326,4.28068013 C87.3727306,20.6989245 80.579604,31.5978289 71.8008528,36.9773932 C63.0221015,42.3569577 49.1950731,44.0939566 30.3197674,42.1883899 Z" id="leaf-1"></path>
                <path d="M30.5964209,29.7672572 C30.9412834,20.0296106 29.1040433,13.0446476 25.0847004,8.81236851 C20.7520661,4.2502007 12.4168389,1.34177892 0.0790186207,0.0871031936 C0.321170333,10.4871006 2.59909707,17.9582155 6.9127988,22.5004478 C10.8914988,26.6899309 17.8823127,29.7358631 27.8852405,31.6382449 L28.1892814,31.6955424 C29.29402,31.9018378 30.3568231,31.173506 30.5631188,30.0687674 C30.5817056,29.9692325 30.5928372,29.8684492 30.5964209,29.7672572 Z" id="leaf-2"></path>
            </g>
            <g id="pumello-logo" transform="translate(52.500000, 93.808140)">
                <path d="M25.499812,8.61743882 C32.6399356,6.77450609 38.7203055,-1.82082713 48.5975615,0.348429564 C53.5555503,1.43731002 56.2444752,4.11817346 57.7903298,7.35812405 C57.2224511,11.6960602 38.9398611,21.3892415 18.3528452,18.3420896 C8.31420908,16.8562381 3.6359692,11.7218399 0.820217646,6.74104817 C3.86581119,11.6811566 18.5118882,10.4210873 25.499812,8.61743882 Z M0.000521594577,5.20014643 C0.22181178,5.58614433 0.435099936,5.99141912 0.638113482,6.40954396 C0.64795723,6.42981805 0.657982807,6.44999649 0.668189082,6.47007961 C0.458589956,6.08984388 0.259173476,5.71137761 0.0686867335,5.33590192 L0.000521594577,5.20014643 Z" id="fruit-inner-[-94--29--74--53]"></path>
            </g>
        </g>
    </g>
</svg>