<?xml version="1.0" encoding="UTF-8"?>
<svg width="450px" height="288px" viewBox="0 0 450 288" version="1.1" xmlns="http://www.w3.org/2000/svg" xmlns:xlink="http://www.w3.org/1999/xlink">
    <title>Skills Section/Skills graph</title>
    <g id="Skills-Section/Skills-graph" stroke="none" stroke-width="1" fill="none" fill-rule="evenodd">
        <g id="skills-graph" transform="translate(0.000000, -8.000000)">
            <g id="axis" opacity="0.595672" transform="translate(130.000000, 34.322578)" stroke="#2D99FF" stroke-width="0.5">
                <ellipse id="circle-axis-4" cx="118.5" cy="117.672414" rx="30.3076946" ry="28.9137931"></ellipse>
                <ellipse id="circle-axis-3" cx="117.826496" cy="117" rx="52.5333373" ry="51.1034483"></ellipse>
                <ellipse id="circle-axis-2" cx="119.173504" cy="117.672414" rx="74.0854756" ry="73.2931034"></ellipse>
                <ellipse id="circle-axis-1" cx="117.826496" cy="117.672414" rx="117.189752" ry="116.327586"></ellipse>
                <line x1="201.341032" y1="200.37931" x2="35.6589682" y2="34.9655172" id="axis-4" stroke-linecap="square"></line>
                <line x1="201.341032" y1="34.9655172" x2="35.6589682" y2="200.37931" id="axis-3" stroke-linecap="square"></line>
                <line x1="118.500024" y1="235.535646" x2="118.500024" y2="-0.190818464" id="axis-2" stroke-linecap="square" transform="translate(118.500024, 117.672414) rotate(-90.000000) translate(-118.500024, -117.672414) "></line>
                <line x1="118.5" y1="233.553435" x2="118.5" y2="0.446564885" id="axis-1" stroke-linecap="square"></line>
            </g>
            <g id="skill-bullets" transform="translate(125.000000, 27.322578)" fill="#E62237">
                <ellipse id="bullet-8" cx="40.5334882" cy="39.7115385" rx="6.05805328" ry="6.05769231"></ellipse>
                <ellipse id="bullet-7" transform="translate(6.877656, 121.826923) rotate(-90.000000) translate(-6.877656, -121.826923) " cx="6.87765632" cy="121.826923" rx="6.05769231" ry="6.05803352"></ellipse>
                <ellipse id="bullet-6" transform="translate(40.533488, 205.288462) rotate(-180.000000) translate(-40.533488, -205.288462) " cx="40.5334882" cy="205.288462" rx="6.05805328" ry="6.05769231"></ellipse>
                <ellipse id="bullet-5" transform="translate(124.000000, 238.942308) rotate(-180.000000) translate(-124.000000, -238.942308) " cx="124" cy="238.942308" rx="6.05805328" ry="6.05769231"></ellipse>
                <ellipse id="bullet-4" transform="translate(207.466512, 205.288462) rotate(-180.000000) translate(-207.466512, -205.288462) " cx="207.466512" cy="205.288462" rx="6.05805328" ry="6.05769231"></ellipse>
                <ellipse id="bullet-3" transform="translate(241.122363, 123.173077) rotate(-270.000000) translate(-241.122363, -123.173077) " cx="241.122363" cy="123.173077" rx="6.05769231" ry="6.05805328"></ellipse>
                <ellipse id="bullet-2" cx="207.466512" cy="39.7115385" rx="6.05805328" ry="6.05769231"></ellipse>
                <ellipse id="bullet-1" transform="translate(124.000000, 6.057692) rotate(-360.000000) translate(-124.000000, -6.057692) " cx="124" cy="6.05769231" rx="6.05805328" ry="6.05769231"></ellipse>
            </g>
            <path d="M239.076959,57.6712371 C243.456207,55.6141154 246.275212,60.5879653 269.557645,68.4710281 C296.265154,77.5168118 296.793523,76.357175 300.774941,79.6726259 C313.23513,90.0538424 306.475112,100.117392 318.919761,120.54057 C331.196574,140.680007 344.570531,142.052449 343.967569,153.426759 C343.516901,161.960575 335.927033,162.324504 321.661064,181.313556 C307.457257,200.225505 310.139508,201.573274 302.941254,206.597339 C289.759997,215.800414 280.420294,207.408468 239.076959,207.488656 C216.475189,207.534918 201.631123,210.076249 198.619418,203.420674 C197.202146,200.290272 199.648184,197.856885 201.565854,191.45421 C205.401192,178.62727 200.450062,172.085808 197.988483,153.426759 C195.691631,136.013702 194.050579,123.569196 200.798164,113.120128 C207.200756,103.207701 213.985638,106.868576 222.753458,95.8674471 C235.428103,79.9656193 228.957134,62.4208133 239.076959,57.6712371 Z" id="graph" stroke="#E52237" stroke-width="7"></path>
            <g id="Labels" transform="translate(0.000000, 0.322578)" fill="#E5E5E5" fill-rule="nonzero">
                <path d="M211.398,293.677422 L211.974,289.519422 L213.342,289.519422 C214.614,289.519422 215.661,289.285422 216.483,288.817422 C217.305,288.349422 217.902,287.749422 218.274,287.017422 C218.646,286.285422 218.832,285.505422 218.832,284.677422 C218.832,283.537422 218.43,282.673422 217.626,282.085422 C216.822,281.497422 215.682,281.203422 214.206,281.203422 L214.206,281.203422 L210.246,281.203422 L208.5,293.677422 L211.398,293.677422 Z M213.342,287.395422 L212.28,287.395422 L212.856,283.309422 L213.918,283.309422 C214.554,283.309422 215.031,283.429422 215.349,283.669422 C215.667,283.909422 215.826,284.293422 215.826,284.821422 C215.826,285.517422 215.64,286.120422 215.268,286.630422 C214.896,287.140422 214.254,287.395422 213.342,287.395422 L213.342,287.395422 Z M222.036,293.677422 L222.702,288.907422 L223.908,288.925422 L225.798,293.677422 L228.966,293.677422 L226.626,288.439422 C227.682,287.995422 228.42,287.443422 228.84,286.783422 C229.26,286.123422 229.47,285.367422 229.47,284.515422 C229.47,283.459422 229.08,282.643422 228.3,282.067422 C227.52,281.491422 226.386,281.203422 224.898,281.203422 L224.898,281.203422 L220.884,281.203422 L219.138,293.677422 L222.036,293.677422 Z M224.268,286.873422 L222.99,286.873422 L223.494,283.273422 L224.592,283.273422 C225.228,283.273422 225.699,283.384422 226.005,283.606422 C226.311,283.828422 226.464,284.179422 226.464,284.659422 C226.464,285.259422 226.29,285.778422 225.942,286.216422 C225.594,286.654422 225.036,286.873422 224.268,286.873422 L224.268,286.873422 Z M237.606,293.677422 L237.894,291.553422 L233.268,291.553422 L233.718,288.367422 L237.498,288.367422 L237.768,286.297422 L233.988,286.297422 L234.42,283.309422 L238.74,283.309422 L239.352,281.203422 L231.81,281.203422 L230.064,293.677422 L237.606,293.677422 Z M242.268,293.677422 L242.844,289.519422 L244.212,289.519422 C245.484,289.519422 246.531,289.285422 247.353,288.817422 C248.175,288.349422 248.772,287.749422 249.144,287.017422 C249.516,286.285422 249.702,285.505422 249.702,284.677422 C249.702,283.537422 249.3,282.673422 248.496,282.085422 C247.692,281.497422 246.552,281.203422 245.076,281.203422 L245.076,281.203422 L241.116,281.203422 L239.37,293.677422 L242.268,293.677422 Z M244.212,287.395422 L243.15,287.395422 L243.726,283.309422 L244.788,283.309422 C245.424,283.309422 245.901,283.429422 246.219,283.669422 C246.537,283.909422 246.696,284.293422 246.696,284.821422 C246.696,285.517422 246.51,286.120422 246.138,286.630422 C245.766,287.140422 245.124,287.395422 244.212,287.395422 L244.212,287.395422 Z M252.906,293.677422 L253.572,288.907422 L254.778,288.925422 L256.668,293.677422 L259.836,293.677422 L257.496,288.439422 C258.552,287.995422 259.29,287.443422 259.71,286.783422 C260.13,286.123422 260.34,285.367422 260.34,284.515422 C260.34,283.459422 259.95,282.643422 259.17,282.067422 C258.39,281.491422 257.256,281.203422 255.768,281.203422 L255.768,281.203422 L251.754,281.203422 L250.008,293.677422 L252.906,293.677422 Z M255.138,286.873422 L253.86,286.873422 L254.364,283.273422 L255.462,283.273422 C256.098,283.273422 256.569,283.384422 256.875,283.606422 C257.181,283.828422 257.334,284.179422 257.334,284.659422 C257.334,285.259422 257.16,285.778422 256.812,286.216422 C256.464,286.654422 255.906,286.873422 255.138,286.873422 L255.138,286.873422 Z M268.476,293.677422 L268.764,291.553422 L264.138,291.553422 L264.588,288.367422 L268.368,288.367422 L268.638,286.297422 L264.858,286.297422 L265.29,283.309422 L269.61,283.309422 L270.222,281.203422 L262.68,281.203422 L260.934,293.677422 L268.476,293.677422 Z M274.002,293.983422 C275.226,293.983422 276.237,293.770422 277.035,293.344422 C277.833,292.918422 278.415,292.372422 278.781,291.706422 C279.147,291.040422 279.33,290.335422 279.33,289.591422 C279.33,288.679422 279.063,287.947422 278.529,287.395422 C277.995,286.843422 277.194,286.393422 276.126,286.045422 C275.31,285.769422 274.758,285.523422 274.47,285.307422 C274.182,285.091422 274.038,284.803422 274.038,284.443422 C274.038,284.011422 274.209,283.672422 274.551,283.426422 C274.893,283.180422 275.352,283.057422 275.928,283.057422 C276.888,283.057422 277.728,283.399422 278.448,284.083422 L278.448,284.083422 L279.996,282.535422 C278.928,281.443422 277.542,280.897422 275.838,280.897422 C274.782,280.897422 273.891,281.083422 273.165,281.455422 C272.439,281.827422 271.896,282.310422 271.536,282.904422 C271.176,283.498422 270.996,284.125422 270.996,284.785422 C270.996,285.613422 271.254,286.303422 271.77,286.855422 C272.286,287.407422 273.132,287.881422 274.308,288.277422 C275.052,288.541422 275.565,288.799422 275.847,289.051422 C276.129,289.303422 276.27,289.633422 276.27,290.041422 C276.27,290.569422 276.075,290.983422 275.685,291.283422 C275.295,291.583422 274.758,291.733422 274.074,291.733422 C272.91,291.733422 271.932,291.325422 271.14,290.509422 L271.14,290.509422 L269.466,292.165422 C269.982,292.717422 270.615,293.158422 271.365,293.488422 C272.115,293.818422 272.994,293.983422 274.002,293.983422 Z M284.118,293.983422 C285.342,293.983422 286.353,293.770422 287.151,293.344422 C287.949,292.918422 288.531,292.372422 288.897,291.706422 C289.263,291.040422 289.446,290.335422 289.446,289.591422 C289.446,288.679422 289.179,287.947422 288.645,287.395422 C288.111,286.843422 287.31,286.393422 286.242,286.045422 C285.426,285.769422 284.874,285.523422 284.586,285.307422 C284.298,285.091422 284.154,284.803422 284.154,284.443422 C284.154,284.011422 284.325,283.672422 284.667,283.426422 C285.009,283.180422 285.468,283.057422 286.044,283.057422 C287.004,283.057422 287.844,283.399422 288.564,284.083422 L288.564,284.083422 L290.112,282.535422 C289.044,281.443422 287.658,280.897422 285.954,280.897422 C284.898,280.897422 284.007,281.083422 283.281,281.455422 C282.555,281.827422 282.012,282.310422 281.652,282.904422 C281.292,283.498422 281.112,284.125422 281.112,284.785422 C281.112,285.613422 281.37,286.303422 281.886,286.855422 C282.402,287.407422 283.248,287.881422 284.424,288.277422 C285.168,288.541422 285.681,288.799422 285.963,289.051422 C286.245,289.303422 286.386,289.633422 286.386,290.041422 C286.386,290.569422 286.191,290.983422 285.801,291.283422 C285.411,291.583422 284.874,291.733422 284.19,291.733422 C283.026,291.733422 282.048,291.325422 281.256,290.509422 L281.256,290.509422 L279.582,292.165422 C280.098,292.717422 280.731,293.158422 281.481,293.488422 C282.231,293.818422 283.11,293.983422 284.118,293.983422 Z" id="PREPRESS"></path>
                <path d="M27.468,141.677422 L28.17,136.727422 L31.77,136.727422 L32.058,134.621422 L28.458,134.621422 L28.926,131.309422 L33.048,131.309422 L33.642,129.203422 L26.316,129.203422 L24.57,141.677422 L27.468,141.677422 Z M36.09,141.677422 L36.756,136.907422 L37.962,136.925422 L39.852,141.677422 L43.02,141.677422 L40.68,136.439422 C41.736,135.995422 42.474,135.443422 42.894,134.783422 C43.314,134.123422 43.524,133.367422 43.524,132.515422 C43.524,131.459422 43.134,130.643422 42.354,130.067422 C41.574,129.491422 40.44,129.203422 38.952,129.203422 L38.952,129.203422 L34.938,129.203422 L33.192,141.677422 L36.09,141.677422 Z M38.322,134.873422 L37.044,134.873422 L37.548,131.273422 L38.646,131.273422 C39.282,131.273422 39.753,131.384422 40.059,131.606422 C40.365,131.828422 40.518,132.179422 40.518,132.659422 C40.518,133.259422 40.344,133.778422 39.996,134.216422 C39.648,134.654422 39.09,134.873422 38.322,134.873422 L38.322,134.873422 Z M49.104,141.983422 C50.652,141.983422 51.912,141.575422 52.884,140.759422 C53.856,139.943422 54.552,138.929422 54.972,137.717422 C55.392,136.505422 55.602,135.269422 55.602,134.009422 C55.602,132.377422 55.188,131.117422 54.36,130.229422 C53.532,129.341422 52.362,128.897422 50.85,128.897422 C49.302,128.897422 48.042,129.308422 47.07,130.130422 C46.098,130.952422 45.399,131.969422 44.973,133.181422 C44.547,134.393422 44.334,135.623422 44.334,136.871422 C44.334,138.491422 44.748,139.748422 45.576,140.642422 C46.404,141.536422 47.58,141.983422 49.104,141.983422 Z M49.302,139.823422 C48.642,139.823422 48.147,139.607422 47.817,139.175422 C47.487,138.743422 47.322,138.047422 47.322,137.087422 C47.322,136.235422 47.418,135.353422 47.61,134.441422 C47.802,133.529422 48.147,132.737422 48.645,132.065422 C49.143,131.393422 49.806,131.057422 50.634,131.057422 C51.294,131.057422 51.789,131.270422 52.119,131.696422 C52.449,132.122422 52.614,132.809422 52.614,133.757422 C52.614,134.621422 52.518,135.512422 52.326,136.430422 C52.134,137.348422 51.789,138.143422 51.291,138.815422 C50.793,139.487422 50.13,139.823422 49.302,139.823422 Z M58.95,141.677422 L59.58,137.249422 C59.784,135.785422 59.886,134.417422 59.886,133.145422 C59.886,132.797422 59.874,132.299422 59.85,131.651422 L59.85,131.651422 L62.154,141.677422 L65.826,141.677422 L67.572,129.203422 L64.998,129.203422 L64.296,134.117422 C64.14,135.221422 64.062,136.301422 64.062,137.357422 C64.062,137.933422 64.08,138.557422 64.116,139.229422 L64.116,139.229422 L61.758,129.203422 L58.122,129.203422 L56.376,141.677422 L58.95,141.677422 Z M73.206,141.677422 L74.646,131.471422 L77.67,131.471422 L78.3,129.203422 L68.886,129.203422 L68.562,131.471422 L71.748,131.471422 L70.308,141.677422 L73.206,141.677422 Z M83.574,137.141422 L83.88,134.945422 L78.228,134.945422 L77.922,137.141422 L83.574,137.141422 Z M92.394,141.677422 L92.682,139.553422 L88.056,139.553422 L88.506,136.367422 L92.286,136.367422 L92.556,134.297422 L88.776,134.297422 L89.208,131.309422 L93.528,131.309422 L94.14,129.203422 L86.598,129.203422 L84.852,141.677422 L92.394,141.677422 Z M96.732,141.677422 L97.362,137.249422 C97.566,135.785422 97.668,134.417422 97.668,133.145422 C97.668,132.797422 97.656,132.299422 97.632,131.651422 L97.632,131.651422 L99.936,141.677422 L103.608,141.677422 L105.354,129.203422 L102.78,129.203422 L102.078,134.117422 C101.922,135.221422 101.844,136.301422 101.844,137.357422 C101.844,137.933422 101.862,138.557422 101.898,139.229422 L101.898,139.229422 L99.54,129.203422 L95.904,129.203422 L94.158,141.677422 L96.732,141.677422 Z M109.656,141.677422 C112.14,141.677422 113.937,140.954422 115.047,139.508422 C116.157,138.062422 116.712,136.205422 116.712,133.937422 C116.712,132.161422 116.199,130.928422 115.173,130.238422 C114.147,129.548422 112.776,129.203422 111.06,129.203422 L111.06,129.203422 L107.676,129.203422 L105.93,141.677422 L109.656,141.677422 Z M110.088,139.553422 L109.134,139.553422 L110.286,131.345422 L111.24,131.345422 C112.044,131.345422 112.662,131.528422 113.094,131.894422 C113.526,132.260422 113.742,132.941422 113.742,133.937422 C113.742,135.437422 113.463,136.748422 112.905,137.870422 C112.347,138.992422 111.408,139.553422 110.088,139.553422 L110.088,139.553422 Z M4.374,167.677422 C6.858,167.677422 8.655,166.954422 9.765,165.508422 C10.875,164.062422 11.43,162.205422 11.43,159.937422 C11.43,158.161422 10.917,156.928422 9.891,156.238422 C8.865,155.548422 7.494,155.203422 5.778,155.203422 L5.778,155.203422 L2.394,155.203422 L0.648,167.677422 L4.374,167.677422 Z M4.806,165.553422 L3.852,165.553422 L5.004,157.345422 L5.958,157.345422 C6.762,157.345422 7.38,157.528422 7.812,157.894422 C8.244,158.260422 8.46,158.941422 8.46,159.937422 C8.46,161.437422 8.181,162.748422 7.623,163.870422 C7.065,164.992422 6.126,165.553422 4.806,165.553422 L4.806,165.553422 Z M19.746,167.677422 L20.034,165.553422 L15.408,165.553422 L15.858,162.367422 L19.638,162.367422 L19.908,160.297422 L16.128,160.297422 L16.56,157.309422 L20.88,157.309422 L21.492,155.203422 L13.95,155.203422 L12.204,167.677422 L19.746,167.677422 Z M27.27,167.677422 L32.436,155.203422 L29.43,155.203422 L25.794,165.373422 L24.894,155.203422 L21.852,155.203422 L23.67,167.677422 L27.27,167.677422 Z M39.15,167.677422 L39.438,165.553422 L34.812,165.553422 L35.262,162.367422 L39.042,162.367422 L39.312,160.297422 L35.532,160.297422 L35.964,157.309422 L40.284,157.309422 L40.896,155.203422 L33.354,155.203422 L31.608,167.677422 L39.15,167.677422 Z M48.312,167.677422 L48.924,165.337422 L44.154,165.337422 L45.558,155.203422 L42.66,155.203422 L40.914,167.677422 L48.312,167.677422 Z M55.008,167.983422 C56.556,167.983422 57.816,167.575422 58.788,166.759422 C59.76,165.943422 60.456,164.929422 60.876,163.717422 C61.296,162.505422 61.506,161.269422 61.506,160.009422 C61.506,158.377422 61.092,157.117422 60.264,156.229422 C59.436,155.341422 58.266,154.897422 56.754,154.897422 C55.206,154.897422 53.946,155.308422 52.974,156.130422 C52.002,156.952422 51.303,157.969422 50.877,159.181422 C50.451,160.393422 50.238,161.623422 50.238,162.871422 C50.238,164.491422 50.652,165.748422 51.48,166.642422 C52.308,167.536422 53.484,167.983422 55.008,167.983422 Z M55.206,165.823422 C54.546,165.823422 54.051,165.607422 53.721,165.175422 C53.391,164.743422 53.226,164.047422 53.226,163.087422 C53.226,162.235422 53.322,161.353422 53.514,160.441422 C53.706,159.529422 54.051,158.737422 54.549,158.065422 C55.047,157.393422 55.71,157.057422 56.538,157.057422 C57.198,157.057422 57.693,157.270422 58.023,157.696422 C58.353,158.122422 58.518,158.809422 58.518,159.757422 C58.518,160.621422 58.422,161.512422 58.23,162.430422 C58.038,163.348422 57.693,164.143422 57.195,164.815422 C56.697,165.487422 56.034,165.823422 55.206,165.823422 Z M65.178,167.677422 L65.754,163.519422 L67.122,163.519422 C68.394,163.519422 69.441,163.285422 70.263,162.817422 C71.085,162.349422 71.682,161.749422 72.054,161.017422 C72.426,160.285422 72.612,159.505422 72.612,158.677422 C72.612,157.537422 72.21,156.673422 71.406,156.085422 C70.602,155.497422 69.462,155.203422 67.986,155.203422 L67.986,155.203422 L64.026,155.203422 L62.28,167.677422 L65.178,167.677422 Z M67.122,161.395422 L66.06,161.395422 L66.636,157.309422 L67.698,157.309422 C68.334,157.309422 68.811,157.429422 69.129,157.669422 C69.447,157.909422 69.606,158.293422 69.606,158.821422 C69.606,159.517422 69.42,160.120422 69.048,160.630422 C68.676,161.140422 68.034,161.395422 67.122,161.395422 L67.122,161.395422 Z M75.186,167.677422 L76.05,162.871422 C76.23,161.947422 76.371,161.065422 76.473,160.225422 C76.575,159.385422 76.644,158.479422 76.68,157.507422 L76.68,157.507422 L77.508,166.363422 L80.298,166.363422 L83.412,157.471422 C83.148,158.971422 82.92,160.735422 82.728,162.763422 L82.728,162.763422 L82.278,167.677422 L85.122,167.677422 L85.932,155.203422 L82.152,155.203422 L79.236,163.861422 L78.57,155.203422 L75.024,155.203422 L72.342,167.677422 L75.186,167.677422 Z M94.41,167.677422 L94.698,165.553422 L90.072,165.553422 L90.522,162.367422 L94.302,162.367422 L94.572,160.297422 L90.792,160.297422 L91.224,157.309422 L95.544,157.309422 L96.156,155.203422 L88.614,155.203422 L86.868,167.677422 L94.41,167.677422 Z M98.748,167.677422 L99.378,163.249422 C99.582,161.785422 99.684,160.417422 99.684,159.145422 C99.684,158.797422 99.672,158.299422 99.648,157.651422 L99.648,157.651422 L101.952,167.677422 L105.624,167.677422 L107.37,155.203422 L104.796,155.203422 L104.094,160.117422 C103.938,161.221422 103.86,162.301422 103.86,163.357422 C103.86,163.933422 103.878,164.557422 103.914,165.229422 L103.914,165.229422 L101.556,155.203422 L97.92,155.203422 L96.174,167.677422 L98.748,167.677422 Z M113.004,167.677422 L114.444,157.471422 L117.468,157.471422 L118.098,155.203422 L108.684,155.203422 L108.36,157.471422 L111.546,157.471422 L110.106,167.677422 L113.004,167.677422 Z" id="FRONT-ENDDEVELOPMENT"></path>
                <path d="M47.384,57.677422 L49.13,45.203422 L46.232,45.203422 L44.486,57.677422 L47.384,57.677422 Z M57.104,57.677422 L57.716,55.337422 L52.946,55.337422 L54.35,45.203422 L51.452,45.203422 L49.706,57.677422 L57.104,57.677422 Z M66.212,57.677422 L66.824,55.337422 L62.054,55.337422 L63.458,45.203422 L60.56,45.203422 L58.814,57.677422 L66.212,57.677422 Z M72.53,57.983422 C73.562,57.983422 74.462,57.794422 75.23,57.416422 C75.998,57.038422 76.607,56.516422 77.057,55.850422 C77.507,55.184422 77.792,54.419422 77.912,53.555422 L77.912,53.555422 L79.082,45.203422 L76.184,45.203422 L75.014,53.393422 C74.906,54.197422 74.669,54.797422 74.303,55.193422 C73.937,55.589422 73.418,55.787422 72.746,55.787422 C72.206,55.787422 71.81,55.655422 71.558,55.391422 C71.306,55.127422 71.18,54.719422 71.18,54.167422 C71.18,53.951422 71.198,53.711422 71.234,53.447422 L71.234,53.447422 L72.386,45.203422 L69.488,45.203422 L68.318,53.501422 C68.282,53.765422 68.264,54.029422 68.264,54.293422 C68.264,55.433422 68.624,56.333422 69.344,56.993422 C70.064,57.653422 71.126,57.983422 72.53,57.983422 Z M83.222,57.983422 C84.446,57.983422 85.457,57.770422 86.255,57.344422 C87.053,56.918422 87.635,56.372422 88.001,55.706422 C88.367,55.040422 88.55,54.335422 88.55,53.591422 C88.55,52.679422 88.283,51.947422 87.749,51.395422 C87.215,50.843422 86.414,50.393422 85.346,50.045422 C84.53,49.769422 83.978,49.523422 83.69,49.307422 C83.402,49.091422 83.258,48.803422 83.258,48.443422 C83.258,48.011422 83.429,47.672422 83.771,47.426422 C84.113,47.180422 84.572,47.057422 85.148,47.057422 C86.108,47.057422 86.948,47.399422 87.668,48.083422 L87.668,48.083422 L89.216,46.535422 C88.148,45.443422 86.762,44.897422 85.058,44.897422 C84.002,44.897422 83.111,45.083422 82.385,45.455422 C81.659,45.827422 81.116,46.310422 80.756,46.904422 C80.396,47.498422 80.216,48.125422 80.216,48.785422 C80.216,49.613422 80.474,50.303422 80.99,50.855422 C81.506,51.407422 82.352,51.881422 83.528,52.277422 C84.272,52.541422 84.785,52.799422 85.067,53.051422 C85.349,53.303422 85.49,53.633422 85.49,54.041422 C85.49,54.569422 85.295,54.983422 84.905,55.283422 C84.515,55.583422 83.978,55.733422 83.294,55.733422 C82.13,55.733422 81.152,55.325422 80.36,54.509422 L80.36,54.509422 L78.686,56.165422 C79.202,56.717422 79.835,57.158422 80.585,57.488422 C81.335,57.818422 82.214,57.983422 83.222,57.983422 Z M94.634,57.677422 L96.074,47.471422 L99.098,47.471422 L99.728,45.203422 L90.314,45.203422 L89.99,47.471422 L93.176,47.471422 L91.736,57.677422 L94.634,57.677422 Z M102.014,57.677422 L102.68,52.907422 L103.886,52.925422 L105.776,57.677422 L108.944,57.677422 L106.604,52.439422 C107.66,51.995422 108.398,51.443422 108.818,50.783422 C109.238,50.123422 109.448,49.367422 109.448,48.515422 C109.448,47.459422 109.058,46.643422 108.278,46.067422 C107.498,45.491422 106.364,45.203422 104.876,45.203422 L104.876,45.203422 L100.862,45.203422 L99.116,57.677422 L102.014,57.677422 Z M104.246,50.873422 L102.968,50.873422 L103.472,47.273422 L104.57,47.273422 C105.206,47.273422 105.677,47.384422 105.983,47.606422 C106.289,47.828422 106.442,48.179422 106.442,48.659422 C106.442,49.259422 106.268,49.778422 105.92,50.216422 C105.572,50.654422 105.014,50.873422 104.246,50.873422 L104.246,50.873422 Z M111.662,57.677422 L112.652,54.995422 L116.27,54.995422 L116.522,57.677422 L119.564,57.677422 L117.62,45.203422 L114.092,45.203422 L108.638,57.677422 L111.662,57.677422 Z M116.054,52.853422 L113.426,52.853422 L115.514,47.183422 L116.054,52.853422 Z M125.558,57.677422 L126.998,47.471422 L130.022,47.471422 L130.652,45.203422 L121.238,45.203422 L120.914,47.471422 L124.1,47.471422 L122.66,57.677422 L125.558,57.677422 Z M132.938,57.677422 L134.684,45.203422 L131.786,45.203422 L130.04,57.677422 L132.938,57.677422 Z M140.246,57.983422 C141.794,57.983422 143.054,57.575422 144.026,56.759422 C144.998,55.943422 145.694,54.929422 146.114,53.717422 C146.534,52.505422 146.744,51.269422 146.744,50.009422 C146.744,48.377422 146.33,47.117422 145.502,46.229422 C144.674,45.341422 143.504,44.897422 141.992,44.897422 C140.444,44.897422 139.184,45.308422 138.212,46.130422 C137.24,46.952422 136.541,47.969422 136.115,49.181422 C135.689,50.393422 135.476,51.623422 135.476,52.871422 C135.476,54.491422 135.89,55.748422 136.718,56.642422 C137.546,57.536422 138.722,57.983422 140.246,57.983422 Z M140.444,55.823422 C139.784,55.823422 139.289,55.607422 138.959,55.175422 C138.629,54.743422 138.464,54.047422 138.464,53.087422 C138.464,52.235422 138.56,51.353422 138.752,50.441422 C138.944,49.529422 139.289,48.737422 139.787,48.065422 C140.285,47.393422 140.948,47.057422 141.776,47.057422 C142.436,47.057422 142.931,47.270422 143.261,47.696422 C143.591,48.122422 143.756,48.809422 143.756,49.757422 C143.756,50.621422 143.66,51.512422 143.468,52.430422 C143.276,53.348422 142.931,54.143422 142.433,54.815422 C141.935,55.487422 141.272,55.823422 140.444,55.823422 Z M150.092,57.677422 L150.722,53.249422 C150.926,51.785422 151.028,50.417422 151.028,49.145422 C151.028,48.797422 151.016,48.299422 150.992,47.651422 L150.992,47.651422 L153.296,57.677422 L156.968,57.677422 L158.714,45.203422 L156.14,45.203422 L155.438,50.117422 C155.282,51.221422 155.204,52.301422 155.204,53.357422 C155.204,53.933422 155.222,54.557422 155.258,55.229422 L155.258,55.229422 L152.9,45.203422 L149.264,45.203422 L147.518,57.677422 L150.092,57.677422 Z" id="ILLUSTRATION"></path>
                <path d="M346.544,255.677422 L347.984,245.471422 L351.008,245.471422 L351.638,243.203422 L342.224,243.203422 L341.9,245.471422 L345.086,245.471422 L343.646,255.677422 L346.544,255.677422 Z M356.588,255.677422 L357.236,250.997422 L362.276,243.203422 L359.144,243.203422 L356.102,248.693422 L354.59,243.203422 L351.494,243.203422 L354.338,251.015422 L353.672,255.677422 L356.588,255.677422 Z M364.436,255.677422 L365.012,251.519422 L366.38,251.519422 C367.652,251.519422 368.699,251.285422 369.521,250.817422 C370.343,250.349422 370.94,249.749422 371.312,249.017422 C371.684,248.285422 371.87,247.505422 371.87,246.677422 C371.87,245.537422 371.468,244.673422 370.664,244.085422 C369.86,243.497422 368.72,243.203422 367.244,243.203422 L367.244,243.203422 L363.284,243.203422 L361.538,255.677422 L364.436,255.677422 Z M366.38,249.395422 L365.318,249.395422 L365.894,245.309422 L366.956,245.309422 C367.592,245.309422 368.069,245.429422 368.387,245.669422 C368.705,245.909422 368.864,246.293422 368.864,246.821422 C368.864,247.517422 368.678,248.120422 368.306,248.630422 C367.934,249.140422 367.292,249.395422 366.38,249.395422 L366.38,249.395422 Z M377.162,255.983422 C378.71,255.983422 379.97,255.575422 380.942,254.759422 C381.914,253.943422 382.61,252.929422 383.03,251.717422 C383.45,250.505422 383.66,249.269422 383.66,248.009422 C383.66,246.377422 383.246,245.117422 382.418,244.229422 C381.59,243.341422 380.42,242.897422 378.908,242.897422 C377.36,242.897422 376.1,243.308422 375.128,244.130422 C374.156,244.952422 373.457,245.969422 373.031,247.181422 C372.605,248.393422 372.392,249.623422 372.392,250.871422 C372.392,252.491422 372.806,253.748422 373.634,254.642422 C374.462,255.536422 375.638,255.983422 377.162,255.983422 Z M377.36,253.823422 C376.7,253.823422 376.205,253.607422 375.875,253.175422 C375.545,252.743422 375.38,252.047422 375.38,251.087422 C375.38,250.235422 375.476,249.353422 375.668,248.441422 C375.86,247.529422 376.205,246.737422 376.703,246.065422 C377.201,245.393422 377.864,245.057422 378.692,245.057422 C379.352,245.057422 379.847,245.270422 380.177,245.696422 C380.507,246.122422 380.672,246.809422 380.672,247.757422 C380.672,248.621422 380.576,249.512422 380.384,250.430422 C380.192,251.348422 379.847,252.143422 379.349,252.815422 C378.851,253.487422 378.188,253.823422 377.36,253.823422 Z M389.474,255.983422 C390.266,255.983422 391.061,255.869422 391.859,255.641422 C392.657,255.413422 393.392,255.089422 394.064,254.669422 L394.064,254.669422 L394.91,248.495422 L390.23,248.495422 L390.212,250.583422 L391.796,250.583422 L391.4,253.409422 C390.824,253.685422 390.242,253.823422 389.654,253.823422 C388.97,253.823422 388.46,253.625422 388.124,253.229422 C387.788,252.833422 387.62,252.179422 387.62,251.267422 C387.62,250.259422 387.74,249.284422 387.98,248.342422 C388.22,247.400422 388.622,246.614422 389.186,245.984422 C389.75,245.354422 390.494,245.039422 391.418,245.039422 C391.886,245.039422 392.294,245.108422 392.642,245.246422 C392.99,245.384422 393.368,245.615422 393.776,245.939422 L393.776,245.939422 L395.396,244.481422 C394.4,243.425422 393.086,242.897422 391.454,242.897422 C389.906,242.897422 388.619,243.296422 387.593,244.094422 C386.567,244.892422 385.817,245.909422 385.343,247.145422 C384.869,248.381422 384.632,249.671422 384.632,251.015422 C384.632,252.635422 385.04,253.868422 385.856,254.714422 C386.672,255.560422 387.878,255.983422 389.474,255.983422 Z M398.744,255.677422 L399.41,250.907422 L400.616,250.925422 L402.506,255.677422 L405.674,255.677422 L403.334,250.439422 C404.39,249.995422 405.128,249.443422 405.548,248.783422 C405.968,248.123422 406.178,247.367422 406.178,246.515422 C406.178,245.459422 405.788,244.643422 405.008,244.067422 C404.228,243.491422 403.094,243.203422 401.606,243.203422 L401.606,243.203422 L397.592,243.203422 L395.846,255.677422 L398.744,255.677422 Z M400.976,248.873422 L399.698,248.873422 L400.202,245.273422 L401.3,245.273422 C401.936,245.273422 402.407,245.384422 402.713,245.606422 C403.019,245.828422 403.172,246.179422 403.172,246.659422 C403.172,247.259422 402.998,247.778422 402.65,248.216422 C402.302,248.654422 401.744,248.873422 400.976,248.873422 L400.976,248.873422 Z M408.392,255.677422 L409.382,252.995422 L413,252.995422 L413.252,255.677422 L416.294,255.677422 L414.35,243.203422 L410.822,243.203422 L405.368,255.677422 L408.392,255.677422 Z M412.784,250.853422 L410.156,250.853422 L412.244,245.183422 L412.784,250.853422 Z M420.128,255.677422 L420.704,251.519422 L422.072,251.519422 C423.344,251.519422 424.391,251.285422 425.213,250.817422 C426.035,250.349422 426.632,249.749422 427.004,249.017422 C427.376,248.285422 427.562,247.505422 427.562,246.677422 C427.562,245.537422 427.16,244.673422 426.356,244.085422 C425.552,243.497422 424.412,243.203422 422.936,243.203422 L422.936,243.203422 L418.976,243.203422 L417.23,255.677422 L420.128,255.677422 Z M422.072,249.395422 L421.01,249.395422 L421.586,245.309422 L422.648,245.309422 C423.284,245.309422 423.761,245.429422 424.079,245.669422 C424.397,245.909422 424.556,246.293422 424.556,246.821422 C424.556,247.517422 424.37,248.120422 423.998,248.630422 C423.626,249.140422 422.984,249.395422 422.072,249.395422 L422.072,249.395422 Z M430.766,255.677422 L431.522,250.331422 L435.194,250.331422 L434.456,255.677422 L437.354,255.677422 L439.1,243.203422 L436.202,243.203422 L435.518,248.027422 L431.828,248.027422 L432.512,243.203422 L429.614,243.203422 L427.868,255.677422 L430.766,255.677422 Z M445.238,255.677422 L445.886,250.997422 L450.926,243.203422 L447.794,243.203422 L444.752,248.693422 L443.24,243.203422 L440.144,243.203422 L442.988,251.015422 L442.322,255.677422 L445.238,255.677422 Z" id="TYPOGRAPHY"></path>
                <path d="M386.884,154.677422 L387.496,152.337422 L382.726,152.337422 L384.13,142.203422 L381.232,142.203422 L379.486,154.677422 L386.884,154.677422 Z M393.58,154.983422 C395.128,154.983422 396.388,154.575422 397.36,153.759422 C398.332,152.943422 399.028,151.929422 399.448,150.717422 C399.868,149.505422 400.078,148.269422 400.078,147.009422 C400.078,145.377422 399.664,144.117422 398.836,143.229422 C398.008,142.341422 396.838,141.897422 395.326,141.897422 C393.778,141.897422 392.518,142.308422 391.546,143.130422 C390.574,143.952422 389.875,144.969422 389.449,146.181422 C389.023,147.393422 388.81,148.623422 388.81,149.871422 C388.81,151.491422 389.224,152.748422 390.052,153.642422 C390.88,154.536422 392.056,154.983422 393.58,154.983422 Z M393.778,152.823422 C393.118,152.823422 392.623,152.607422 392.293,152.175422 C391.963,151.743422 391.798,151.047422 391.798,150.087422 C391.798,149.235422 391.894,148.353422 392.086,147.441422 C392.278,146.529422 392.623,145.737422 393.121,145.065422 C393.619,144.393422 394.282,144.057422 395.11,144.057422 C395.77,144.057422 396.265,144.270422 396.595,144.696422 C396.925,145.122422 397.09,145.809422 397.09,146.757422 C397.09,147.621422 396.994,148.512422 396.802,149.430422 C396.61,150.348422 396.265,151.143422 395.767,151.815422 C395.269,152.487422 394.606,152.823422 393.778,152.823422 Z M405.892,154.983422 C406.684,154.983422 407.479,154.869422 408.277,154.641422 C409.075,154.413422 409.81,154.089422 410.482,153.669422 L410.482,153.669422 L411.328,147.495422 L406.648,147.495422 L406.63,149.583422 L408.214,149.583422 L407.818,152.409422 C407.242,152.685422 406.66,152.823422 406.072,152.823422 C405.388,152.823422 404.878,152.625422 404.542,152.229422 C404.206,151.833422 404.038,151.179422 404.038,150.267422 C404.038,149.259422 404.158,148.284422 404.398,147.342422 C404.638,146.400422 405.04,145.614422 405.604,144.984422 C406.168,144.354422 406.912,144.039422 407.836,144.039422 C408.304,144.039422 408.712,144.108422 409.06,144.246422 C409.408,144.384422 409.786,144.615422 410.194,144.939422 L410.194,144.939422 L411.814,143.481422 C410.818,142.425422 409.504,141.897422 407.872,141.897422 C406.324,141.897422 405.037,142.296422 404.011,143.094422 C402.985,143.892422 402.235,144.909422 401.761,146.145422 C401.287,147.381422 401.05,148.671422 401.05,150.015422 C401.05,151.635422 401.458,152.868422 402.274,153.714422 C403.09,154.560422 404.296,154.983422 405.892,154.983422 Z M417.25,154.983422 C418.798,154.983422 420.058,154.575422 421.03,153.759422 C422.002,152.943422 422.698,151.929422 423.118,150.717422 C423.538,149.505422 423.748,148.269422 423.748,147.009422 C423.748,145.377422 423.334,144.117422 422.506,143.229422 C421.678,142.341422 420.508,141.897422 418.996,141.897422 C417.448,141.897422 416.188,142.308422 415.216,143.130422 C414.244,143.952422 413.545,144.969422 413.119,146.181422 C412.693,147.393422 412.48,148.623422 412.48,149.871422 C412.48,151.491422 412.894,152.748422 413.722,153.642422 C414.55,154.536422 415.726,154.983422 417.25,154.983422 Z M417.448,152.823422 C416.788,152.823422 416.293,152.607422 415.963,152.175422 C415.633,151.743422 415.468,151.047422 415.468,150.087422 C415.468,149.235422 415.564,148.353422 415.756,147.441422 C415.948,146.529422 416.293,145.737422 416.791,145.065422 C417.289,144.393422 417.952,144.057422 418.78,144.057422 C419.44,144.057422 419.935,144.270422 420.265,144.696422 C420.595,145.122422 420.76,145.809422 420.76,146.757422 C420.76,147.621422 420.664,148.512422 420.472,149.430422 C420.28,150.348422 419.935,151.143422 419.437,151.815422 C418.939,152.487422 418.276,152.823422 417.448,152.823422 Z" id="LOGO"></path>
                <path d="M79.094,255.983422 C80.126,255.983422 81.026,255.794422 81.794,255.416422 C82.562,255.038422 83.171,254.516422 83.621,253.850422 C84.071,253.184422 84.356,252.419422 84.476,251.555422 L84.476,251.555422 L85.646,243.203422 L82.748,243.203422 L81.578,251.393422 C81.47,252.197422 81.233,252.797422 80.867,253.193422 C80.501,253.589422 79.982,253.787422 79.31,253.787422 C78.77,253.787422 78.374,253.655422 78.122,253.391422 C77.87,253.127422 77.744,252.719422 77.744,252.167422 C77.744,251.951422 77.762,251.711422 77.798,251.447422 L77.798,251.447422 L78.95,243.203422 L76.052,243.203422 L74.882,251.501422 C74.846,251.765422 74.828,252.029422 74.828,252.293422 C74.828,253.433422 75.188,254.333422 75.908,254.993422 C76.628,255.653422 77.69,255.983422 79.094,255.983422 Z M88.922,255.677422 L90.668,243.203422 L87.77,243.203422 L86.024,255.677422 L88.922,255.677422 Z M99.056,255.677422 C101.54,255.677422 103.337,254.954422 104.447,253.508422 C105.557,252.062422 106.112,250.205422 106.112,247.937422 C106.112,246.161422 105.599,244.928422 104.573,244.238422 C103.547,243.548422 102.176,243.203422 100.46,243.203422 L100.46,243.203422 L97.076,243.203422 L95.33,255.677422 L99.056,255.677422 Z M99.488,253.553422 L98.534,253.553422 L99.686,245.345422 L100.64,245.345422 C101.444,245.345422 102.062,245.528422 102.494,245.894422 C102.926,246.260422 103.142,246.941422 103.142,247.937422 C103.142,249.437422 102.863,250.748422 102.305,251.870422 C101.747,252.992422 100.808,253.553422 99.488,253.553422 L99.488,253.553422 Z M114.428,255.677422 L114.716,253.553422 L110.09,253.553422 L110.54,250.367422 L114.32,250.367422 L114.59,248.297422 L110.81,248.297422 L111.242,245.309422 L115.562,245.309422 L116.174,243.203422 L108.632,243.203422 L106.886,255.677422 L114.428,255.677422 Z M119.954,255.983422 C121.178,255.983422 122.189,255.770422 122.987,255.344422 C123.785,254.918422 124.367,254.372422 124.733,253.706422 C125.099,253.040422 125.282,252.335422 125.282,251.591422 C125.282,250.679422 125.015,249.947422 124.481,249.395422 C123.947,248.843422 123.146,248.393422 122.078,248.045422 C121.262,247.769422 120.71,247.523422 120.422,247.307422 C120.134,247.091422 119.99,246.803422 119.99,246.443422 C119.99,246.011422 120.161,245.672422 120.503,245.426422 C120.845,245.180422 121.304,245.057422 121.88,245.057422 C122.84,245.057422 123.68,245.399422 124.4,246.083422 L124.4,246.083422 L125.948,244.535422 C124.88,243.443422 123.494,242.897422 121.79,242.897422 C120.734,242.897422 119.843,243.083422 119.117,243.455422 C118.391,243.827422 117.848,244.310422 117.488,244.904422 C117.128,245.498422 116.948,246.125422 116.948,246.785422 C116.948,247.613422 117.206,248.303422 117.722,248.855422 C118.238,249.407422 119.084,249.881422 120.26,250.277422 C121.004,250.541422 121.517,250.799422 121.799,251.051422 C122.081,251.303422 122.222,251.633422 122.222,252.041422 C122.222,252.569422 122.027,252.983422 121.637,253.283422 C121.247,253.583422 120.71,253.733422 120.026,253.733422 C118.862,253.733422 117.884,253.325422 117.092,252.509422 L117.092,252.509422 L115.418,254.165422 C115.934,254.717422 116.567,255.158422 117.317,255.488422 C118.067,255.818422 118.946,255.983422 119.954,255.983422 Z M129.206,255.677422 L130.952,243.203422 L128.054,243.203422 L126.308,255.677422 L129.206,255.677422 Z M136.568,255.983422 C137.36,255.983422 138.155,255.869422 138.953,255.641422 C139.751,255.413422 140.486,255.089422 141.158,254.669422 L141.158,254.669422 L142.004,248.495422 L137.324,248.495422 L137.306,250.583422 L138.89,250.583422 L138.494,253.409422 C137.918,253.685422 137.336,253.823422 136.748,253.823422 C136.064,253.823422 135.554,253.625422 135.218,253.229422 C134.882,252.833422 134.714,252.179422 134.714,251.267422 C134.714,250.259422 134.834,249.284422 135.074,248.342422 C135.314,247.400422 135.716,246.614422 136.28,245.984422 C136.844,245.354422 137.588,245.039422 138.512,245.039422 C138.98,245.039422 139.388,245.108422 139.736,245.246422 C140.084,245.384422 140.462,245.615422 140.87,245.939422 L140.87,245.939422 L142.49,244.481422 C141.494,243.425422 140.18,242.897422 138.548,242.897422 C137,242.897422 135.713,243.296422 134.687,244.094422 C133.661,244.892422 132.911,245.909422 132.437,247.145422 C131.963,248.381422 131.726,249.671422 131.726,251.015422 C131.726,252.635422 132.134,253.868422 132.95,254.714422 C133.766,255.560422 134.972,255.983422 136.568,255.983422 Z M145.514,255.677422 L146.144,251.249422 C146.348,249.785422 146.45,248.417422 146.45,247.145422 C146.45,246.797422 146.438,246.299422 146.414,245.651422 L146.414,245.651422 L148.718,255.677422 L152.39,255.677422 L154.136,243.203422 L151.562,243.203422 L150.86,248.117422 C150.704,249.221422 150.626,250.301422 150.626,251.357422 C150.626,251.933422 150.644,252.557422 150.68,253.229422 L150.68,253.229422 L148.322,243.203422 L144.686,243.203422 L142.94,255.677422 L145.514,255.677422 Z" id="UIDESIGN"></path>
                <path d="M343.384,58.677422 L345.13,46.203422 L342.232,46.203422 L340.486,58.677422 L343.384,58.677422 Z M349.432,58.677422 C351.916,58.677422 353.713,57.954422 354.823,56.508422 C355.933,55.062422 356.488,53.205422 356.488,50.937422 C356.488,49.161422 355.975,47.928422 354.949,47.238422 C353.923,46.548422 352.552,46.203422 350.836,46.203422 L350.836,46.203422 L347.452,46.203422 L345.706,58.677422 L349.432,58.677422 Z M349.864,56.553422 L348.91,56.553422 L350.062,48.345422 L351.016,48.345422 C351.82,48.345422 352.438,48.528422 352.87,48.894422 C353.302,49.260422 353.518,49.941422 353.518,50.937422 C353.518,52.437422 353.239,53.748422 352.681,54.870422 C352.123,55.992422 351.184,56.553422 349.864,56.553422 L349.864,56.553422 Z M364.804,58.677422 L365.092,56.553422 L360.466,56.553422 L360.916,53.367422 L364.696,53.367422 L364.966,51.297422 L361.186,51.297422 L361.618,48.309422 L365.938,48.309422 L366.55,46.203422 L359.008,46.203422 L357.262,58.677422 L364.804,58.677422 Z M369.142,58.677422 L369.772,54.249422 C369.976,52.785422 370.078,51.417422 370.078,50.145422 C370.078,49.797422 370.066,49.299422 370.042,48.651422 L370.042,48.651422 L372.346,58.677422 L376.018,58.677422 L377.764,46.203422 L375.19,46.203422 L374.488,51.117422 C374.332,52.221422 374.254,53.301422 374.254,54.357422 C374.254,54.933422 374.272,55.557422 374.308,56.229422 L374.308,56.229422 L371.95,46.203422 L368.314,46.203422 L366.568,58.677422 L369.142,58.677422 Z M381.238,58.677422 L382.984,46.203422 L380.086,46.203422 L378.34,58.677422 L381.238,58.677422 Z M388.618,58.677422 L390.058,48.471422 L393.082,48.471422 L393.712,46.203422 L384.298,46.203422 L383.974,48.471422 L387.16,48.471422 L385.72,58.677422 L388.618,58.677422 Z M398.662,58.677422 L399.31,53.997422 L404.35,46.203422 L401.218,46.203422 L398.176,51.693422 L396.664,46.203422 L393.568,46.203422 L396.412,54.015422 L395.746,58.677422 L398.662,58.677422 Z" id="IDENITY"></path>
                <path d="M226.177,21.677422 L226.789,19.337422 L222.019,19.337422 L223.423,9.20342197 L220.525,9.20342197 L218.779,21.677422 L226.177,21.677422 Z M229.507,21.677422 L230.497,18.995422 L234.115,18.995422 L234.367,21.677422 L237.409,21.677422 L235.465,9.20342197 L231.937,9.20342197 L226.483,21.677422 L229.507,21.677422 Z M233.899,16.853422 L231.271,16.853422 L233.359,11.183422 L233.899,16.853422 Z M243.907,21.677422 L244.555,16.997422 L249.595,9.20342197 L246.463,9.20342197 L243.421,14.693422 L241.909,9.20342197 L238.813,9.20342197 L241.657,17.015422 L240.991,21.677422 L243.907,21.677422 Z M253.843,21.983422 C255.391,21.983422 256.651,21.575422 257.623,20.759422 C258.595,19.943422 259.291,18.929422 259.711,17.717422 C260.131,16.505422 260.341,15.269422 260.341,14.009422 C260.341,12.377422 259.927,11.117422 259.099,10.229422 C258.271,9.34142197 257.101,8.89742197 255.589,8.89742197 C254.041,8.89742197 252.781,9.30842197 251.809,10.130422 C250.837,10.952422 250.138,11.969422 249.712,13.181422 C249.286,14.393422 249.073,15.623422 249.073,16.871422 C249.073,18.491422 249.487,19.748422 250.315,20.642422 C251.143,21.536422 252.319,21.983422 253.843,21.983422 Z M254.041,19.823422 C253.381,19.823422 252.886,19.607422 252.556,19.175422 C252.226,18.743422 252.061,18.047422 252.061,17.087422 C252.061,16.235422 252.157,15.353422 252.349,14.441422 C252.541,13.529422 252.886,12.737422 253.384,12.065422 C253.882,11.393422 254.545,11.057422 255.373,11.057422 C256.033,11.057422 256.528,11.270422 256.858,11.696422 C257.188,12.122422 257.353,12.809422 257.353,13.757422 C257.353,14.621422 257.257,15.512422 257.065,16.430422 C256.873,17.348422 256.528,18.143422 256.03,18.815422 C255.532,19.487422 254.869,19.823422 254.041,19.823422 Z M265.723,21.983422 C266.755,21.983422 267.655,21.794422 268.423,21.416422 C269.191,21.038422 269.8,20.516422 270.25,19.850422 C270.7,19.184422 270.985,18.419422 271.105,17.555422 L271.105,17.555422 L272.275,9.20342197 L269.377,9.20342197 L268.207,17.393422 C268.099,18.197422 267.862,18.797422 267.496,19.193422 C267.13,19.589422 266.611,19.787422 265.939,19.787422 C265.399,19.787422 265.003,19.655422 264.751,19.391422 C264.499,19.127422 264.373,18.719422 264.373,18.167422 C264.373,17.951422 264.391,17.711422 264.427,17.447422 L264.427,17.447422 L265.579,9.20342197 L262.681,9.20342197 L261.511,17.501422 C261.475,17.765422 261.457,18.029422 261.457,18.293422 C261.457,19.433422 261.817,20.333422 262.537,20.993422 C263.257,21.653422 264.319,21.983422 265.723,21.983422 Z M277.711,21.677422 L279.151,11.471422 L282.175,11.471422 L282.805,9.20342197 L273.391,9.20342197 L273.067,11.471422 L276.253,11.471422 L274.813,21.677422 L277.711,21.677422 Z" id="LAYOUT"></path>
            </g>
        </g>
    </g>
</svg>