<?xml version="1.0" encoding="UTF-8"?>
<svg width="26px" height="80px" viewBox="0 0 26 80" version="1.1" xmlns="http://www.w3.org/2000/svg" xmlns:xlink="http://www.w3.org/1999/xlink">
    <title>Nav/tab--back</title>
    <g id="Nav/tab--back" stroke="none" stroke-width="1" fill="none" fill-rule="evenodd">
        <g id="Nav/tab" fill="#E5E5E5">
            <g id="Nav" transform="translate(13.000000, 40.000000) rotate(-360.000000) translate(-13.000000, -40.000000) ">
                <path d="M19,20.9109059 C21.472089,20.9109059 23.833909,21.3830237 26.0002139,22.2420132 L26.0002139,57.5797985 C23.833909,58.438788 21.472089,58.9109059 19,58.9109059 C8.50658975,58.9109059 4.07359207e-15,50.4043161 4.71612814e-15,39.9109059 C5.3586642e-15,29.4174956 8.50658975,20.9109059 19,20.9109059 Z" id="Combined-Shape"></path>
                <path d="M6.44928168,4 C13.5940265,15.0969865 21.2505464,20.6454798 29.4188413,20.6454798 C29.4188413,20.6454798 21.5911205,20.6454798 5.93567889,20.6454798 L6.44928168,4 Z" id="Path-5" transform="translate(17.677260, 12.322740) rotate(-90.000000) translate(-17.677260, -12.322740) "></path>
                <path d="M5.84198011,59.7100642 C13.4284355,70.8326738 21.3058106,76.3939786 29.4741055,76.3939786 C29.4741055,76.3939786 21.6463847,76.3939786 5.9909431,76.3939786 L5.84198011,59.7100642 Z" id="Path-5-Copy" transform="translate(17.658043, 68.052021) scale(1, -1) rotate(-90.000000) translate(-17.658043, -68.052021) "></path>
            </g>
        </g>
        <g id="Nav/project--back" transform="translate(6.000000, 33.277778)" fill="#0C0D27" fill-rule="nonzero">
            <path d="M0.061283006,7.63115805 L0.0359201217,7.55840515 L0.0359201217,7.55840515 L0.0112136845,7.45314377 L0.0112136845,7.45314377 L0.000884642921,7.36941527 L0.000884642921,7.36941527 L0,7.24977952 L0,7.24977952 L0.012313299,7.14601457 L0.012313299,7.14601457 L0.0459615062,7.01560449 L0.0459615062,7.01560449 L0.0975888792,6.89483184 L0.135816522,6.828529 L0.135816522,6.828529 L0.183483251,6.7605884 L0.183483251,6.7605884 L0.233159963,6.70198422 L5.55156426,1.37017915 C5.89618058,1.0247551 6.45491402,1.0247551 6.79953033,1.37017915 C7.1176377,1.68903211 7.1421075,2.19075569 6.87293973,2.5377426 L6.79953033,2.62107027 L3.01109856,6.41819269 L14.1175547,6.41819269 C14.6049158,6.41819269 15,6.81420292 15,7.30270629 C15,7.75631656 14.6593407,8.13017509 14.2204665,8.18126911 L14.1175547,8.18721988 L2.7993117,8.18721988 L6.42658124,12.4287254 L6.4933984,12.5174511 C6.73522289,12.8841086 6.67243471,13.3824732 6.33086661,13.675932 C5.98929851,13.9693909 5.48834578,13.9553654 5.16383415,13.6597487 L5.08657644,13.5799931 L0.256892643,7.92815185 C0.225659329,7.89684533 0.197256757,7.86377589 0.171684927,7.82926308 L0.108445895,7.73086579 L0.108445895,7.73086579 L0.061283006,7.63115805 L0.061283006,7.63115805 Z" id="back-btn"></path>
        </g>
    </g>
</svg>