<?xml version="1.0" encoding="UTF-8"?>
<svg width="26px" height="80px" viewBox="0 0 26 80" version="1.1" xmlns="http://www.w3.org/2000/svg" xmlns:xlink="http://www.w3.org/1999/xlink">
    <!-- Generator: Sketch 63.1 (92452) - https://sketch.com -->
    <title>Nav / Tab</title>
    <desc>Created with Sketch.</desc>
    <g id="Nav-/-Tab" stroke="none" stroke-width="1" fill="none" fill-rule="evenodd">
        <g id="Nav" transform="translate(13.000000, 40.000000) rotate(-360.000000) translate(-13.000000, -40.000000) ">
            <path d="M19,20.9109059 C21.472089,20.9109059 23.833909,21.3830237 26.0002139,22.2420132 L26.0002139,57.5797985 C23.833909,58.438788 21.472089,58.9109059 19,58.9109059 C8.50658975,58.9109059 1.93853909e-14,50.4043161 2.0027927e-14,39.9109059 C2.06704631e-14,29.4174956 8.50658975,20.9109059 19,20.9109059 Z" id="Combined-Shape" fill="#E5E5E5"></path>
            <g id="Menu" transform="translate(14.000000, 39.803763) rotate(-90.000000) translate(-14.000000, -39.803763) translate(7.500000, 35.803763)" stroke="#0A1928" stroke-linecap="round" stroke-linejoin="round" stroke-width="2">
                <line x1="0.0761904762" y1="7" x2="12.0761905" y2="7" id="Path-7"></line>
                <line x1="0.0761904762" y1="1" x2="12.0761905" y2="1" id="Path-7-Copy"></line>
            </g>
            <path d="M6.44928168,4 C13.5940265,15.0969865 21.2505464,20.6454798 29.4188413,20.6454798 C29.4188413,20.6454798 21.5911205,20.6454798 5.93567889,20.6454798 L6.44928168,4 Z" id="Path-5" fill="#E5E5E5" transform="translate(17.677260, 12.322740) rotate(-90.000000) translate(-17.677260, -12.322740) "></path>
            <path d="M5.84198011,59.7100642 C13.4284355,70.8326738 21.3058106,76.3939786 29.4741055,76.3939786 C29.4741055,76.3939786 21.6463847,76.3939786 5.9909431,76.3939786 L5.84198011,59.7100642 Z" id="Path-5-Copy" fill="#E5E5E5" transform="translate(17.658043, 68.052021) scale(1, -1) rotate(-90.000000) translate(-17.658043, -68.052021) "></path>
        </g>
    </g>
</svg>