<?xml version="1.0" encoding="UTF-8"?>
<svg width="64px" height="52px" viewBox="0 0 64 52" version="1.1" xmlns="http://www.w3.org/2000/svg" xmlns:xlink="http://www.w3.org/1999/xlink">
    <title>Icons / twitter</title>
    <g id="Icons-/-twitter" stroke="none" stroke-width="1" fill="none" fill-rule="evenodd">
        <g id="twitter-brands" fill="#E5E5E5" fill-rule="nonzero">
            <path d="M57.42125,12.9645 C57.461875,13.533 57.461875,14.101625 57.461875,14.670125 C57.461875,32.010125 44.264,51.989875 20.142125,51.989875 C12.710625,51.989875 5.807125,49.8375 0,46.101625 C1.055875,46.223375 2.071,46.264 3.1675,46.264 C9.299375,46.264 14.944125,44.193 19.45175,40.66 C13.68525,40.538125 8.85275,36.7615 7.18775,31.5635 C8,31.68525 8.812125,31.7665 9.665,31.7665 C10.842625,31.7665 12.020375,31.604 13.11675,31.319875 C7.106625,30.1015 2.598875,24.822375 2.598875,18.44675 L2.598875,18.284375 C4.345,19.259 6.375625,19.868125 8.52775,19.94925 C4.99475,17.593875 2.680125,13.573625 2.680125,9.025375 C2.680125,6.588875 3.32975,4.355375 4.466875,2.406125 C10.92375,10.3655 20.629375,15.563375 31.5125,16.132 C31.3095,15.157375 31.187625,14.14225 31.187625,13.127 C31.187625,5.8985 37.035375,0.01025 44.304375,0.01025 C48.081,0.01025 51.492125,1.594 53.888125,4.152375 C56.8525,3.583875 59.695125,2.487375 62.213,0.984875 C61.23825,4.030625 59.16725,6.589 56.4465,8.21325 C59.086125,7.929125 61.6445,7.198 63.99975,6.182875 C62.21325,8.78175 59.979625,11.096375 57.42125,12.9645 Z" id="Path"></path>
        </g>
    </g>
</svg>